<svg width="16" height="15" viewBox="0 0 16 15" fill="none" xmlns="http://www.w3.org/2000/svg">
<path d="M5 9H11V15H5V9Z" fill="url(#paint0_linear_1_24)"/>
<path d="M9.003 1.384C8.72768 1.13664 8.37062 0.999794 8.0005 0.999794C7.63038 0.999794 7.27332 1.13664 6.998 1.384L1.498 6.326C1.34132 6.46665 1.216 6.63871 1.1302 6.83099C1.04439 7.02326 1.00003 7.23145 1 7.442V13.496C1 13.8938 1.15804 14.2754 1.43934 14.5567C1.72064 14.838 2.10218 14.996 2.5 14.996H4V15H6V9.496C6 9.36339 6.05268 9.23622 6.14645 9.14245C6.24021 9.04868 6.36739 8.996 6.5 8.996H9.5C9.63261 8.996 9.75979 9.04868 9.85355 9.14245C9.94732 9.23622 10 9.36339 10 9.496V15H13V14.996H13.5C13.8978 14.996 14.2794 14.838 14.5607 14.5567C14.842 14.2754 15 13.8938 15 13.496V7.442C15.0001 7.23152 14.9559 7.02338 14.8703 6.83111C14.7846 6.63884 14.6595 6.46674 14.503 6.326L9.003 1.384Z" fill="url(#paint1_linear_1_24)"/>
<path fill-rule="evenodd" clip-rule="evenodd" d="M8.644 0.239001C8.46497 0.0845838 8.23642 -0.000366211 8 -0.000366211C7.76358 -0.000366211 7.53503 0.0845838 7.356 0.239001L0.326 6.342C0.230832 6.42343 0.153015 6.52317 0.0971779 6.63529C0.0413405 6.7474 0.00862367 6.8696 0.000973382 6.99462C-0.0066769 7.11964 0.0108957 7.24492 0.0526461 7.363C0.0943964 7.48109 0.159471 7.58957 0.244 7.682C0.417201 7.87046 0.65696 7.9841 0.912496 7.99885C1.16803 8.01359 1.41927 7.92829 1.613 7.761L8 2.216L14.387 7.761C14.5809 7.92816 14.8322 8.01329 15.0877 7.99836C15.3432 7.98343 15.5829 7.8696 15.756 7.681C15.8404 7.5886 15.9053 7.48018 15.947 7.36219C15.9886 7.24419 16.0062 7.11904 15.9985 6.99414C15.9909 6.86924 15.9582 6.74716 15.9025 6.63513C15.8467 6.5231 15.769 6.42342 15.674 6.342L8.644 0.239001Z" fill="url(#paint2_linear_1_24)"/>
<path fill-rule="evenodd" clip-rule="evenodd" d="M7.356 0.239001C7.53503 0.0845838 7.76358 -0.000366211 8 -0.000366211C8.23619 -0.000366211 8.46404 0.084852 8.643 0.239001L15.674 6.342C16.074 6.69 16.111 7.289 15.756 7.682C15.5828 7.87046 15.3432 7.98362 15.0877 7.99836C14.8322 8.01329 14.5809 7.92816 14.387 7.761L8 2.216L1.613 7.761C1.41927 7.92829 1.16803 8.01359 0.912496 7.99885C0.656957 7.98391 0.417065 7.8696 0.244 7.681C0.159628 7.5886 0.0943055 7.48099 0.0526461 7.363C0.0108957 7.24492 -0.0066769 7.11964 0.000973382 6.99462C0.00862367 6.8696 0.0413405 6.7474 0.0971779 6.63529C0.153015 6.52317 0.230832 6.42343 0.326 6.342L7.356 0.239001Z" fill="url(#paint3_linear_1_24)"/>
<defs>
<linearGradient id="paint0_linear_1_24" x1="7.99975" y1="-0.00036596" x2="-0.0558029" y2="19.1021" gradientUnits="userSpaceOnUse">
<stop stop-color="#944600"/>
<stop offset="1" stop-color="#CD8E02"/>
</linearGradient>
<linearGradient id="paint1_linear_1_24" x1="1.52618" y1="-0.73408" x2="16.4112" y2="12.1714" gradientUnits="userSpaceOnUse">
<stop stop-color="#FFD394"/>
<stop offset="1" stop-color="#FFB357"/>
</linearGradient>
<linearGradient id="paint2_linear_1_24" x1="5.415" y1="-3.56189" x2="14.8984" y2="10.1186" gradientUnits="userSpaceOnUse">
<stop stop-color="#FF921F"/>
<stop offset="1" stop-color="#EB4824"/>
</linearGradient>
<linearGradient id="paint3_linear_1_24" x1="5.415" y1="-1.9" x2="8.929" y2="7.604" gradientUnits="userSpaceOnUse">
<stop stop-color="#FF921F"/>
<stop offset="1" stop-color="#EB4824"/>
</linearGradient>
</defs>
</svg>
