<svg height="24" width="24" xmlns="http://www.w3.org/2000/svg"><g transform="translate(0 -1028.4)"><g fill="#16a085"><path d="m4 1032.4h1v16h-1z"/><path d="m9 1032.4h1v16h-1z"/><path d="m3 1030.4c-1.1046 0-2 .9-2 2v7 2 7c0 1.1.8954 2 2 2h9 9c1.105 0 2-.9 2-2v-7-2-7c0-1.1-.895-2-2-2h-9z"/></g><path d="m3 2c-1.1046 0-2 .8954-2 2v3 3 1 1 1 3 3c0 1.105.8954 2 2 2h9 9c1.105 0 2-.895 2-2v-3-4-2-3-3c0-1.1046-.895-2-2-2h-9z" fill="#1abc9c" transform="translate(0 1028.4)"/><path d="m10 1033.4-2.5625 6h-5.4375v1h6 .2812l1.7188-4 1.281 3 3 7 2.563-6h5.156v-1h-4.719-1.281l-1.719 4-1.719-4z" fill="#ecf0f1"/></g></svg>