<svg width="20" height="20" viewBox="0 0 23 23" fill="none" xmlns="http://www.w3.org/2000/svg">
<path d="M13.271 21.993C14.277 21.918 15.129 21.22 15.359 20.257L16.566 15.216C16.5775 15.168 16.6029 15.1246 16.639 15.091C18.532 13.344 19.499 11.387 19.499 9.251C19.5 5.245 16.143 2 12 2C7.857 2 4.5 5.246 4.5 9.25C4.5 11.387 5.469 13.344 7.363 15.091C7.39913 15.1246 7.42453 15.168 7.436 15.216L8.64 20.256L8.687 20.423C8.988 21.354 9.884 21.999 10.907 21.999H13.092L13.271 21.993Z" fill="url(#paint0_radial_1_38)"/>
<path d="M13.271 21.993C14.277 21.918 15.129 21.22 15.359 20.257L16.566 15.216C16.5775 15.168 16.6029 15.1246 16.639 15.091C18.532 13.344 19.499 11.387 19.499 9.251C19.5 5.245 16.143 2 12 2C7.857 2 4.5 5.246 4.5 9.25C4.5 11.387 5.469 13.344 7.363 15.091C7.39913 15.1246 7.42453 15.168 7.436 15.216L8.64 20.256L8.687 20.423C8.988 21.354 9.884 21.999 10.907 21.999H13.092L13.271 21.993Z" fill="url(#paint1_linear_1_38)"/>
<path d="M13.271 21.993C14.277 21.918 15.129 21.22 15.359 20.257L16.566 15.216C16.5775 15.168 16.6029 15.1246 16.639 15.091C18.532 13.344 19.499 11.387 19.499 9.251C19.5 5.245 16.143 2 12 2C7.857 2 4.5 5.246 4.5 9.25C4.5 11.387 5.469 13.344 7.363 15.091C7.39913 15.1246 7.42453 15.168 7.436 15.216L8.64 20.256L8.687 20.423C8.988 21.354 9.884 21.999 10.907 21.999H13.092L13.271 21.993Z" fill="url(#paint2_radial_1_38)" fill-opacity="0.2"/>
<path d="M13.271 21.993C14.277 21.918 15.129 21.22 15.359 20.257L16.566 15.216C16.5775 15.168 16.6029 15.1246 16.639 15.091C18.532 13.344 19.499 11.387 19.499 9.251C19.5 5.245 16.143 2 12 2C7.857 2 4.5 5.246 4.5 9.25C4.5 11.387 5.469 13.344 7.363 15.091C7.39913 15.1246 7.42453 15.168 7.436 15.216L8.64 20.256L8.687 20.423C8.988 21.354 9.884 21.999 10.907 21.999H13.092L13.271 21.993Z" fill="url(#paint3_radial_1_38)" fill-opacity="0.2"/>
<path d="M13.271 21.993C14.277 21.918 15.129 21.22 15.359 20.257L16.566 15.216C16.5775 15.168 16.6029 15.1246 16.639 15.091C18.532 13.344 19.499 11.387 19.499 9.251C19.5 5.245 16.143 2 12 2C7.857 2 4.5 5.246 4.5 9.25C4.5 11.387 5.469 13.344 7.363 15.091C7.39913 15.1246 7.42453 15.168 7.436 15.216L8.64 20.256L8.687 20.423C8.988 21.354 9.884 21.999 10.907 21.999H13.092L13.271 21.993Z" fill="url(#paint4_radial_1_38)" fill-opacity="0.2"/>
<path d="M13.271 21.993C14.277 21.918 15.129 21.22 15.359 20.257L16.566 15.216C16.5775 15.168 16.6029 15.1246 16.639 15.091C18.532 13.344 19.499 11.387 19.499 9.251C19.5 5.245 16.143 2 12 2C7.857 2 4.5 5.246 4.5 9.25C4.5 11.387 5.469 13.344 7.363 15.091C7.39913 15.1246 7.42453 15.168 7.436 15.216L8.64 20.256L8.687 20.423C8.988 21.354 9.884 21.999 10.907 21.999H13.092L13.271 21.993Z" fill="url(#paint5_radial_1_38)" fill-opacity="0.2"/>
<path d="M12.776 10.776C12.776 10.3469 12.4281 9.999 11.999 9.999C11.5699 9.999 11.222 10.3469 11.222 10.776V17.67C11.222 18.0991 11.5699 18.447 11.999 18.447C12.4281 18.447 12.776 18.0991 12.776 17.67V10.776Z" fill="url(#paint6_linear_1_38)"/>
<path d="M12.776 6.775C12.776 6.34588 12.4281 5.998 11.999 5.998C11.5699 5.998 11.222 6.34588 11.222 6.775V8.22C11.222 8.64913 11.5699 8.997 11.999 8.997C12.4281 8.997 12.776 8.64913 12.776 8.22V6.775Z" fill="url(#paint7_linear_1_38)"/>
<path d="M7.613 9.318C7.46726 9.17213 7.38544 8.97434 7.38554 8.76815C7.38563 8.56195 7.46763 8.36424 7.6135 8.2185C7.75937 8.07276 7.95716 7.99094 8.16335 7.99104C8.36955 7.99113 8.56726 8.07313 8.713 8.219L9.734 9.241C9.87974 9.38674 9.96161 9.5844 9.96161 9.7905C9.96161 9.9966 9.87974 10.1943 9.734 10.34C9.58826 10.4857 9.3906 10.5676 9.1845 10.5676C8.9784 10.5676 8.78074 10.4857 8.635 10.34L7.613 9.318Z" fill="url(#paint8_linear_1_38)"/>
<path d="M16.389 9.318C16.5347 9.17213 16.6166 8.97434 16.6165 8.76815C16.6164 8.56195 16.5344 8.36424 16.3885 8.2185C16.2426 8.07276 16.0448 7.99094 15.8386 7.99104C15.6324 7.99113 15.4347 8.07313 15.289 8.219L14.268 9.241C14.1282 9.38781 14.0514 9.58343 14.0538 9.78613C14.0562 9.98882 14.1378 10.1825 14.2811 10.3259C14.4243 10.4693 14.618 10.5511 14.8207 10.5537C15.0234 10.5563 15.2191 10.4796 15.366 10.34L16.389 9.318Z" fill="url(#paint9_linear_1_38)"/>
<path d="M8.34 18.997H15.661L16.021 17.497H7.98L8.34 18.997Z" fill="url(#paint10_linear_1_38)"/>
<defs>
<radialGradient id="paint0_radial_1_38" cx="0" cy="0" r="1" gradientUnits="userSpaceOnUse" gradientTransform="translate(7 3.962) rotate(73.984) scale(17.8739 27.2073)">
<stop stop-color="#FFE06B"/>
<stop offset="0.376" stop-color="#FFA43D"/>
<stop offset="1" stop-color="#E67505"/>
</radialGradient>
<linearGradient id="paint1_linear_1_38" x1="12" y1="2" x2="12" y2="21.999" gradientUnits="userSpaceOnUse">
<stop offset="0.792" stop-color="#D34719" stop-opacity="0"/>
<stop offset="0.835" stop-color="#D34719"/>
<stop offset="1" stop-color="#D34719" stop-opacity="0"/>
</linearGradient>
<radialGradient id="paint2_radial_1_38" cx="0" cy="0" r="1" gradientUnits="userSpaceOnUse" gradientTransform="translate(8.652 9.968) rotate(46.8183) scale(1.98967 1.59079)">
<stop offset="0.165" stop-color="#741C06"/>
<stop offset="0.854" stop-color="#741C06" stop-opacity="0"/>
</radialGradient>
<radialGradient id="paint3_radial_1_38" cx="0" cy="0" r="1" gradientUnits="userSpaceOnUse" gradientTransform="translate(12 7.774) rotate(90) scale(2.50675 1.88007)">
<stop offset="0.165" stop-color="#741C06"/>
<stop offset="0.854" stop-color="#741C06" stop-opacity="0"/>
</radialGradient>
<radialGradient id="paint4_radial_1_38" cx="0" cy="0" r="1" gradientUnits="userSpaceOnUse" gradientTransform="translate(15.328 9.896) rotate(133.802) scale(2.3894 1.79206)">
<stop offset="0.165" stop-color="#741C06"/>
<stop offset="0.854" stop-color="#741C06" stop-opacity="0"/>
</radialGradient>
<radialGradient id="paint5_radial_1_38" cx="0" cy="0" r="1" gradientUnits="userSpaceOnUse" gradientTransform="translate(12 13.714) rotate(180) scale(1.91514 5.51584)">
<stop offset="0.165" stop-color="#741C06"/>
<stop offset="0.777" stop-color="#741C06" stop-opacity="0"/>
</radialGradient>
<linearGradient id="paint6_linear_1_38" x1="11.999" y1="9.999" x2="11.999" y2="18.452" gradientUnits="userSpaceOnUse">
<stop stop-color="#FFF2BE"/>
<stop offset="0.437" stop-color="#FFD638"/>
</linearGradient>
<linearGradient id="paint7_linear_1_38" x1="11.222" y1="7.498" x2="12.776" y2="7.498" gradientUnits="userSpaceOnUse">
<stop stop-color="#FFF2BE"/>
<stop offset="1" stop-color="#FFD638"/>
</linearGradient>
<linearGradient id="paint8_linear_1_38" x1="8.154" y1="9.815" x2="9.199" y2="8.77" gradientUnits="userSpaceOnUse">
<stop stop-color="#FFF2BE"/>
<stop offset="1" stop-color="#FFD638"/>
</linearGradient>
<linearGradient id="paint9_linear_1_38" x1="14.763" y1="8.809" x2="15.8" y2="9.846" gradientUnits="userSpaceOnUse">
<stop stop-color="#FFF2BE"/>
<stop offset="1" stop-color="#FFD638"/>
</linearGradient>
<linearGradient id="paint10_linear_1_38" x1="11.346" y1="17.496" x2="12.289" y2="19.995" gradientUnits="userSpaceOnUse">
<stop stop-color="#FFC7A3"/>
<stop offset="1" stop-color="#FF9C70"/>
</linearGradient>
</defs>
</svg>
