<svg width="640" height="589" viewBox="0 0 640 589" fill="none" xmlns="http://www.w3.org/2000/svg">
<path d="M36.8122 181.202C34.4332 179.512 31.1962 177.713 29.9732 174.983C23.6302 160.833 19.5731 127.684 16.4621 110.534C11.8301 85.0003 6.66415 59.5323 2.34215 33.9453C0.811147 24.8823 -1.05985 14.3973 4.83415 6.40927C7.71315 2.50827 14.0831 1.00627 18.6701 0.482267C25.7251 -0.324733 33.2052 0.123277 40.3052 0.130277L451.183 0.154279C462.423 0.150279 473.883 -0.290731 485.103 0.340269C489.573 0.591269 493.153 1.87727 496.723 4.63727C500.293 7.40227 501.843 12.7393 502.203 17.0713C503.223 29.3903 491.503 80.1443 488.623 95.7773L481.263 135.953C479.783 144.189 478.663 152.736 476.493 160.819C474.993 166.388 472.693 171.888 468.903 176.291C467.473 177.948 465.743 179.53 463.813 180.577C469.973 184.184 474.313 190.075 476.193 196.958C478.863 206.741 477.303 239.077 477.313 250.61L477.503 360.268L477.333 403.878C477.303 411.514 477.783 419.589 476.873 427.15C477.053 426.977 477.243 426.811 477.413 426.631C481.063 422.733 494.793 306.26 499.643 289.56C500.263 287.411 500.763 285.808 502.763 284.686C514.003 283.871 543.783 290.125 556.483 292.017C580.373 295.576 606.593 298.227 629.963 303.005C633.003 303.627 635.743 304.487 638.463 306.002C639.853 308.034 639.693 309.916 639.463 312.322C638.613 321.158 636.603 330.106 635.083 338.866L628.433 378.774C621.963 417.297 616.013 456.001 608.953 494.413C608.343 497.693 607.793 501.389 606.063 504.276C599.853 507.89 581.523 497.738 579.653 504.463C577.713 511.426 578.903 531.18 574.823 535.011C572.813 535.226 572.673 535.488 570.983 534.226C566.723 524.25 574.993 510.333 570.663 500.521L569.963 500.317C563.843 513.309 572.093 551.756 557.653 557.378C554.243 558.705 550.103 558.626 546.823 556.949C543.903 555.455 542.373 553.026 541.513 549.934C537.693 536.223 546.983 505.905 542.833 495.102C520.583 490.677 497.903 487.902 475.533 484.069C475.813 487.891 473.633 491.941 471.163 494.753C465.733 500.92 456.243 505.502 448.173 506.64C449.213 507.551 449.893 508.406 450.443 509.68C453.953 517.843 476.643 578.027 477.333 584.286C477.493 585.751 477.113 586.027 476.293 587.158C474.343 587.892 472.893 587.721 470.843 587.503C462.983 589.196 443.513 587.876 434.643 587.874C407.733 587.866 380.553 588.653 353.673 587.568C351.593 587.715 351.133 587.906 349.263 586.846C344.723 578.08 341.843 567.823 338.433 558.546C334.873 548.88 330.173 538.806 327.963 528.753C329.383 523.371 334.673 522.269 338.483 518.927C338.603 518.822 338.713 518.714 338.833 518.607C339.003 518.088 339.103 517.903 339.083 517.288C338.973 513.403 336.713 507.619 333.843 505.018C326.373 503.245 292.573 504.686 283.063 504.703L151.313 504.643C148.923 509.091 146.893 513.823 144.713 518.387C147.913 520.371 156.323 524.974 157.183 528.98C157.973 532.663 139.493 580.549 136.493 586.898C134.683 588.188 131.743 587.862 129.583 587.918C105.809 587.623 82.0122 587.786 58.2352 587.781C43.9122 587.778 29.2832 587.125 15.0172 588.071C12.8362 587.782 11.5582 587.931 9.86418 586.377C8.93318 580.825 36.5472 513.345 40.2592 501.426C32.5012 495.343 27.2932 490.165 26.1182 479.988C24.1982 463.372 25.4752 445.333 25.4532 428.556C25.4082 392.777 26.4138 323.275 25.9948 287.5C26.0468 293.04 36.565 317.968 29 318C23.331 318.024 31.781 312.613 27.5 308.5C25.977 307.037 27.4841 308.631 27.5001 306.5C27.5141 304.81 26.7912 304.725 28.0052 303.5C29.0922 302.403 24.978 304.915 26.5 305C26.6019 315 25.9948 304.5 25.9948 302.5C25.9948 301 27.0047 297.314 27 295.5C26.9948 293.5 27.5 294 27.4948 292.5C27.4948 292.5 27 299 26.9948 291.5C27 287.617 24.1825 295.497 25.6305 292C27.2965 287.978 26.4748 290.511 25.9948 287C32.2198 284.582 26.5828 295 26.0828 300C26.0776 302.617 25.5 290 25.3582 284.177C25.4252 266.086 23.1912 207.562 27.4892 194.268C29.0902 189.317 32.7211 185.227 36.3631 181.639L36.8122 181.202Z" fill="#232422"/>
<path d="M334.429 528.619C366.359 512.637 384.019 502.64 419.949 496.278C424.259 495.515 431.579 493.482 435.809 494.652C437.699 495.175 439.049 497.698 439.889 499.384C442.529 504.67 471.209 584.449 470.849 586.5C462.989 588.193 443.519 586.873 434.649 586.871C407.739 586.863 380.559 587.65 353.679 586.565C354.839 585.137 355.309 584.937 355.039 583.024C353.939 575.196 338.989 535.417 334.429 528.619Z" fill="#1C90FE"/>
<path d="M49.5454 495.641C75.6994 497.74 128.773 514.363 150.448 529.915C143.338 548.464 134.488 567.721 129.588 586.915C105.814 586.62 82.0174 586.783 58.2404 586.778C43.9174 586.775 29.2885 586.122 15.0225 587.068C26.7605 556.73 37.2764 525.734 49.5454 495.641Z" fill="#1C90FE"/>
<path d="M48.3004 183.176C62.8934 182.227 77.8294 182.832 92.4634 182.842C92.4894 185.184 92.3405 187.847 92.8245 190.137C93.2215 192.015 94.6854 193.558 96.3264 194.456C98.0994 195.426 100.235 195.911 102.252 195.951C108.147 196.068 114.091 195.157 120.008 195.171C147.308 195.237 400.878 196.858 406.998 194.481C408.378 193.946 409.608 192.964 410.188 191.596C411.328 188.913 410.438 185.443 409.338 182.897C423.378 182.873 454.008 179.362 465.068 188.547C469.328 192.086 470.398 197.94 470.858 203.218C472.228 219.02 471.078 235.914 471.108 251.842L471.228 348.665L471.078 430.973C471.078 445.799 471.928 461.246 470.708 475.996C470.278 481.125 469.478 484.859 466.008 488.845C460.708 494.925 453.068 496.156 445.458 496.77C445.458 496.711 445.458 496.651 445.448 496.593C445.008 494.098 443.928 491.185 441.868 489.585C437.178 485.935 429.288 487.786 423.858 488.57C424.028 487.766 424.178 487.191 424.008 486.368C423.118 481.846 420.328 476.517 418.678 472.108C415.645 464.173 413.225 456.056 411.418 447.757C408.588 434.447 409.768 419.865 409.108 406.288C408.528 394.053 406.708 382.312 405.058 370.233C406.218 367.649 410.278 368.758 412.558 366.678C413.668 362.728 413.618 358.331 413.598 354.239C413.588 349.698 414.448 342.927 411.108 339.598C408.048 338.452 405.048 339.133 401.878 339.205C395.488 339.349 396.118 335.954 392.088 332.179C406.338 332.568 422.038 333.98 436.148 332.356C437.768 332.17 440.588 331.823 441.558 330.449C443.538 327.649 443.128 314.561 442.358 311.15C442.028 309.679 441.058 308.456 439.758 307.702C438.308 306.859 436.348 306.58 434.688 306.48C430.098 306.202 425.358 306.962 420.738 307.02C410.538 307.147 397.248 305.17 387.478 307.595C383.578 308.563 385.768 313.411 383.968 316.095C383.788 316.364 383.588 316.615 383.388 316.876C383.258 315.422 382.848 314.176 382.228 312.851C377.658 303.069 370.938 307.229 363.138 303.962C357.698 301.689 362.498 282.908 360.168 277.178C358.558 275.789 357.378 275.513 355.238 275.361C349.968 274.984 334.718 273.156 332.598 279.35C331.818 281.613 331.828 283.717 329.988 285.309L328.038 285.14C325.718 282.582 327.268 279.058 324.888 276.137C319.688 274.03 310.598 275.338 304.958 275.455C303.578 275.46 302.188 275.628 300.808 275.751C295.348 280.266 300.318 287.032 297.918 292.674C296.278 294.026 295.728 294.108 293.608 294.483C290.288 289.441 295.318 281.053 290.608 276.156C282.398 274.074 271.528 275.569 263.008 275.858C266.038 282.965 261.658 294.088 264.208 298.802C268.958 301.96 276.428 300.86 281.908 300.738C282.428 302.341 278.788 320.801 279.338 326.322C280.298 335.9 286.008 330.029 290.618 333.868C291.648 335.654 291.948 336.902 292.028 338.957C256.868 339.393 221.658 339.064 186.488 339.077C188.948 337.334 190.618 335.316 191.388 332.382C195.568 332.481 200.389 333.074 204.459 332.041C205.159 330.91 205.438 330.001 205.648 328.673C206.358 324.289 207.508 311.287 205.098 307.892C203.478 307.362 202.328 307.014 201.128 305.775C200.858 304.105 200.558 302.864 201.238 301.238C206.988 299.596 215.948 300.779 222.108 300.665C222.758 299.762 223.269 298.81 223.449 297.695C224.259 292.709 224.968 279.849 222.148 275.884C218.458 275.122 204.088 274.37 200.918 275.224C191.108 277.866 198.268 292.342 195.128 298.296C194.498 298.433 193.668 298.675 193.008 298.613C185.808 297.94 192.018 281.459 188.278 276.55C183.478 273.737 168.648 275.117 162.928 275.948C160.768 277.68 160.858 279.142 159.598 281.392C158.568 283.253 157.228 283.822 155.268 284.419L154.338 283.83C154.388 283.147 154.448 282.46 154.458 281.775C154.508 280.083 154.328 278.592 153.048 277.37C148.768 273.269 132.488 275.455 126.677 275.843C126.235 281.474 126.406 287.036 126.566 292.673C124.583 295.217 122.981 298.051 121.055 300.64C116.364 306.947 112.517 303.274 106.17 304.496C99.2114 305.836 96.6555 315.45 93.0465 320.746C93.1965 316.885 93.9604 311.984 92.7524 308.314C91.8834 308.028 91.0095 307.791 90.1085 307.63C84.8645 306.69 64.8734 305.922 61.1354 308.587C60.6754 309.775 60.4375 310.868 60.3535 312.145C60.0275 317.128 58.9934 327.195 62.6854 330.932C66.7964 335.093 81.2814 332.855 87.1954 332.885L84.2025 339.238C77.5095 339.156 68.8474 337.967 62.4324 339.66C60.6294 341.329 60.5054 344.568 60.3134 346.898C59.9284 351.572 59.1204 364.17 62.1154 367.733C66.2274 369.384 72.1664 368.666 76.5834 368.682C75.4621 374.446 74.5781 380.246 73.9315 386.082C73.2848 391.918 72.8778 397.771 72.7105 403.64C72.3945 419.729 73.5594 436.209 71.6954 452.197C70.1804 465.187 65.6765 478.042 62.0305 490.557C59.3815 489.94 56.4244 489.089 53.7014 489.057C48.9904 489 44.0814 491.682 39.4074 489.634C36.3494 488.294 34.2455 485.444 33.2285 482.327C30.6155 474.323 32.0924 444.025 32.0474 433.684L32.1984 287.911C32.2674 260.244 31.3064 232.406 32.0504 204.762C32.1554 200.845 32.6124 196.936 34.4064 193.4C37.3254 187.644 42.4184 185.076 48.3004 183.176Z" fill="#FEFEF6"/>
<path d="M63.4523 275.638C70.4443 275.59 114.867 274.351 117.941 276.048C118.465 276.338 118.828 276.852 119.272 277.254C120.961 282.094 120.163 289.145 120.184 294.307C120.197 297.536 119.671 298.625 117.482 300.846C101.491 300.898 85.4723 301.144 69.4833 300.956C66.6863 300.923 63.5193 301.116 61.5023 299.046C59.5623 293.337 59.6933 285.447 60.7393 279.496C61.1153 277.355 61.8443 276.848 63.4523 275.638Z" fill="#232422"/>
<path d="M64.0903 244.194C71.3703 244.242 106.659 242.667 111.278 245.705C113.343 250.683 112.897 259.845 112.038 265.219C111.668 267.537 110.988 267.993 109.252 269.347C100.673 269.387 70.9503 271.009 64.8913 269.021C62.9783 268.393 61.5363 267.313 60.6493 265.472C58.9403 261.928 59.1163 249.685 60.9093 246.125C61.5613 244.831 62.8403 244.665 64.0903 244.194Z" fill="#232422"/>
<path d="M391.539 244.221C392.219 244.138 392.879 244.06 393.569 244.033C399.949 243.787 438.209 242.908 440.659 245.383C442.879 247.629 442.878 260.818 442.398 264.156C442.038 266.665 441.429 267.086 439.569 268.582C439.399 268.705 439.239 268.862 439.039 268.951C435.669 270.474 396.219 269.473 391.569 268.42C391.459 268.19 391.338 267.964 391.238 267.731C389.308 263.351 389.789 248.547 391.539 244.221Z" fill="#232422"/>
<path d="M400.839 275.734C406.159 275.073 434.539 274.474 438.649 275.523C439.959 275.855 440.569 276.153 441.259 277.35C443.499 281.215 443.359 292.87 441.939 297.225C441.359 298.988 440.349 299.213 438.859 300.062C434.939 301.512 404.969 301.542 401.259 299.599C400.619 299.266 400.579 298.908 400.369 298.259C398.759 293.366 398.699 280.37 400.839 275.734Z" fill="#232422"/>
<path d="M408.279 213.463C408.739 213.374 409.209 213.29 409.679 213.218C414.969 212.409 437.369 211.572 441.019 214.284C443.209 219.326 443.269 228.992 441.879 234.352C441.359 236.357 440.539 236.406 438.809 237.334C435.739 238.795 415.449 238.268 412.089 237.272C410.039 236.665 408.459 235.625 407.529 233.644C405.629 229.594 406.899 217.523 408.279 213.463Z" fill="#232422"/>
<path d="M61.0948 213.136C71.5548 212.475 82.4728 212.543 92.9338 213.191C93.1178 219.748 94.7838 231.742 92.0958 237.703C81.7238 238.208 71.1388 238.103 60.7648 237.767C59.8938 229.724 59.7398 221.113 61.0948 213.136Z" fill="#232422"/>
<path d="M289.129 244.224C295.649 243.613 303.809 242.835 310.279 243.219C312.439 243.348 314.699 244.029 316.069 245.824C318.799 249.428 318.529 260.826 317.889 265.113C317.539 267.45 316.899 267.61 315.059 268.88C312.049 269.967 294.629 270.047 291.589 269.318C290.939 269.161 290.239 269.023 289.919 268.4C287.279 263.404 287.669 249.586 289.129 244.224Z" fill="#232422"/>
<path d="M221.858 244.218C227.578 243.607 238.358 242.419 243.808 243.374C245.708 243.706 247.318 244.478 248.348 246.17C250.408 249.591 250.758 262.575 249.598 266.511C249.128 268.137 248.208 268.271 246.848 268.98C241.938 270.163 227.268 270.34 222.658 268.769C221.648 268.425 221.478 268.315 221.058 267.295C219.498 263.557 220.028 248.015 221.858 244.218Z" fill="#232422"/>
<path d="M152.428 243.889C157.678 243.801 175.738 241.979 179.218 245.053C181.798 250.262 181.248 259.067 180.468 264.772C180.138 267.193 179.698 267.265 177.798 268.629C175.468 269.845 157.198 269.729 154.358 268.843C153.738 268.301 152.788 267.7 152.448 266.955C150.208 262.116 150.648 248.927 152.428 243.889Z" fill="#232422"/>
<path d="M238.678 212.718C243.438 212.594 259.628 211.627 263.088 213.347C264.228 213.913 264.538 214.915 264.868 216.084C266.038 220.222 266.348 232.665 264.318 236.151C263.618 237.362 262.318 237.389 261.018 237.784C255.028 237.771 247.718 239.134 241.988 238.297C240.048 238.014 238.548 237.181 237.478 235.564C235.258 232.215 235.098 219.193 236.248 215.226C236.688 213.711 237.458 213.489 238.678 212.718Z" fill="#232422"/>
<path d="M119.106 243.94C125.176 243.925 138.519 241.464 143.249 244.67C144.929 245.809 145.749 247.703 146.129 249.639C146.969 254.01 147.039 265.666 144.669 269.277C139.299 269.257 124.3 271.564 120.163 268.383C118.491 267.098 117.824 264.948 117.538 262.942C116.912 258.554 116.62 247.396 119.106 243.94Z" fill="#232422"/>
<path d="M170.428 212.709C176.968 212.676 185.778 210.987 192.018 212.883C193.688 213.39 195.388 214.538 196.048 216.204C197.378 219.511 197.408 232.659 195.718 235.809C194.908 237.326 193.548 237.34 192.028 237.793C186.368 237.794 180.308 238.517 174.718 238.066C172.408 237.879 170.228 237.255 168.778 235.317C165.578 231.053 166.748 220.874 167.888 215.871C168.358 213.839 168.738 213.69 170.428 212.709Z" fill="#232422"/>
<path d="M256.108 244.222C256.598 244.16 257.098 244.088 257.598 244.049C262.438 243.666 279.258 242.525 282.588 245.322C284.688 250.077 284.498 261.139 283.278 266.224C282.828 268.107 282.288 268.114 280.678 268.983C275.958 269.823 263.398 270.99 259.148 269.048C257.208 268.165 256.068 266.647 255.438 264.646C254.028 260.195 254.068 248.411 256.108 244.222Z" fill="#232422"/>
<path d="M339.288 213.468C346.828 211.631 358.328 212.279 366.048 213.144C366.118 213.267 366.188 213.391 366.268 213.512C368.808 217.619 368.578 229.623 367.408 234.341C366.928 236.279 366.138 236.335 364.548 237.24C362.218 238.8 349.598 238.267 346.198 237.931C343.798 237.694 341.098 236.974 339.628 234.908C336.678 230.743 338.588 218.492 339.288 213.468Z" fill="#232422"/>
<path d="M99.0546 213.029C105.878 212.85 113.893 211.619 120.598 212.647C122.899 212.999 125.171 213.686 126.522 215.728C129.531 220.276 127.729 232.134 126.902 237.524C120.669 238.171 112.95 238.666 106.715 238.263C104.401 238.113 101.715 237.575 100.208 235.638C96.6077 231.009 98.5926 218.744 99.0546 213.029Z" fill="#232422"/>
<path d="M187.388 244.218C193.428 243.615 200.478 243.102 206.558 243.199C208.888 243.236 211.518 243.828 213.108 245.663C216.258 249.313 215.528 259.7 215.158 264.174C214.948 266.767 214.218 267.221 212.298 268.764C209.338 269.924 192.278 270.013 188.848 268.916C187.928 268.621 187.868 268.713 187.428 267.79C185.378 263.465 185.858 248.708 187.388 244.218Z" fill="#232422"/>
<path d="M373.109 213.466C378.689 212.164 395.389 211.777 400.719 213.902C402.679 217.229 402.529 229.845 401.769 233.771C401.319 236.092 400.939 236.076 399.069 237.383C398.489 237.678 398.109 237.762 397.459 237.785C391.949 237.98 378.159 239.755 374.319 235.657C370.799 231.906 373.019 218.66 373.109 213.466Z" fill="#232422"/>
<path d="M307.959 212.717C313.949 212.641 321.559 211.208 327.329 212.163C329.289 212.487 331.029 213.296 332.159 214.992C334.889 219.099 334.429 230.449 333.429 235.195C331.999 237.023 331.519 237.03 329.259 237.723C323.659 237.8 317.029 238.994 311.579 238.376C309.599 238.152 307.739 237.426 306.589 235.727C304.409 232.509 304.129 219.022 305.279 215.266C305.779 213.645 306.599 213.484 307.959 212.717Z" fill="#232422"/>
<path d="M231.898 275.734C239.988 275.45 248.548 274.945 256.588 275.856C257.108 276.691 257.609 277.415 257.799 278.397C258.629 282.64 259.439 295.936 256.939 299.427C256.159 300.51 254.779 300.494 253.529 300.791C248.169 300.891 234.999 302.472 230.829 299.631C229.379 296.442 229.279 292.711 229.289 289.261C229.309 284.807 228.598 278.996 231.898 275.734Z" fill="#232422"/>
<path d="M247.128 307.241C252.558 306.804 268.388 305.545 272.398 308.586C274.718 314.005 274.438 322.716 273.518 328.513C273.158 330.796 272.688 330.922 270.878 332.16C266.248 332.946 252.178 334.483 248.378 331.636C246.458 330.196 245.748 327.608 245.508 325.326C245.058 321.146 244.548 310.391 247.128 307.241Z" fill="#232422"/>
<path d="M136.318 212.686C142.618 212.616 153.108 211.108 158.868 213.269C160.058 213.715 160.468 214.407 160.858 215.551C162.348 219.963 162.828 231.979 160.478 236.059C159.678 237.464 158.238 237.429 156.788 237.791C149.035 237.947 141.282 237.923 133.528 237.719C133.128 231.478 131.668 220.806 133.608 214.892C134.138 213.268 134.898 213.28 136.318 212.686Z" fill="#232422"/>
<path d="M324.308 244.223C324.488 244.2 324.668 244.172 324.848 244.154C330.038 243.603 346.048 242.225 349.938 245.255C352.128 250.101 352.628 262.116 350.578 266.974C349.958 268.462 348.728 268.462 347.328 268.915C341.708 269.355 333.848 270.758 328.488 269.04C326.098 268.274 324.428 266.946 323.428 264.611C321.618 260.372 322.348 248.608 324.308 244.223Z" fill="#232422"/>
<path d="M357.699 244.221C358.229 244.144 358.759 244.057 359.289 244.007C364.049 243.563 380.419 242.342 383.769 245.038C386.109 249.878 385.419 256.734 385.089 262.002C384.889 265.084 384.969 266.468 382.609 268.546C379.489 270.136 368.149 269.776 364.259 269.298C361.759 268.991 359.269 268.113 357.809 265.938C354.949 261.66 356.709 249.159 357.699 244.221Z" fill="#232422"/>
<path d="M285.908 212.717C288.808 212.655 292.228 212.328 295.078 212.756C297.098 213.06 297.628 213.454 298.868 215.004C299.828 221.006 300.328 231.794 297.638 237.248C294.048 239.076 285.858 237.928 281.708 237.839C279.418 237.911 275.848 238.405 273.778 237.346C267.918 234.34 272.298 219.539 270.418 213.676C270.368 213.515 270.298 213.356 270.248 213.196C275.408 212.654 280.718 212.794 285.908 212.717Z" fill="#232422"/>
<path d="M367.939 275.73C374.509 275.167 385.098 274.177 391.368 275.738C392.468 276.552 393.219 277.207 393.799 278.48C395.809 282.907 395.778 293.944 393.998 298.218C393.348 299.773 392.259 299.825 390.819 300.37C386.579 301.823 372.469 301.014 368.079 300C367.689 299.535 367.359 299.174 367.179 298.574C365.949 294.341 365.659 279.322 367.939 275.73Z" fill="#232422"/>
<path d="M205.509 212.72C210.449 212.644 215.379 212.592 220.309 212.348C223.479 212.191 226.209 212.123 228.709 214.383C231.749 219.601 230.529 230.014 229.899 235.961C228.459 237.508 227.749 237.405 225.729 237.829C219.759 237.869 213.289 238.447 207.379 237.866C206.029 237.733 204.369 237.7 203.559 236.468C201.319 233.084 201.589 219.365 202.879 215.24C203.399 213.567 204.109 213.468 205.509 212.72Z" fill="#232422"/>
<path d="M212.609 307.982C213.196 307.821 213.789 307.688 214.389 307.583C218.529 306.833 235.579 306.198 238.489 308.326C241.019 313.192 240.239 322.127 239.689 327.514C239.429 330.023 238.989 330.444 237.129 331.999C233.739 333.559 223.749 332.87 219.849 332.665C217.529 332.543 214.769 331.978 213.219 330.101C210.219 326.478 212.429 312.87 212.609 307.982Z" fill="#232422"/>
<path d="M420.588 353C427.548 352.451 434.838 352.712 441.798 353.118C441.968 353.339 442.148 353.554 442.298 353.781C443.918 356.136 444.218 362.414 443.478 365.114C442.978 366.985 442.268 367.078 440.748 368.005C435.578 368.569 427.608 369.628 422.778 367.736C421.068 367.062 419.608 365.902 418.968 364.125C417.928 361.289 419.288 355.662 420.588 353Z" fill="#232422"/>
<path d="M43.6875 25.1363C67.7835 24.4243 92.1005 25.0143 116.217 25.0063L385.189 24.9883C407.799 24.9903 430.609 24.3593 453.189 25.1103C456.739 25.2273 462.398 24.9553 465.108 27.3193C467.248 29.1793 469.249 31.8353 469.319 34.7733C469.609 45.9173 464.288 68.6703 462.258 80.7373C458.568 102.61 455.889 125.373 450.929 146.952C450.599 148.352 450.088 149.391 449.118 150.455C449.238 151.349 449.078 152.158 448.978 153.054C447.568 155.305 446.089 157.285 443.459 158.154C433.029 161.601 398.728 159.76 385.508 159.76L147.028 159.743C120.405 159.737 93.6315 160.327 67.0265 159.703C64.0145 159.632 61.0595 159.282 58.3245 157.917C54.6955 156.107 53.2555 153.632 52.1555 149.923C47.9425 135.716 45.2365 110.201 42.6445 94.5123L36.4825 57.1213C35.4955 51.0963 33.9735 44.7543 33.5965 38.6873C33.4275 35.9503 33.7365 32.9873 35.1605 30.5913C37.0595 27.3973 40.3345 26.1543 43.6875 25.1363Z" fill="#FEFEF6"/>
<path d="M77.4763 66.0736C100.132 65.6216 122.883 66.0406 145.548 66.0946C158.028 66.1246 170.788 65.3726 183.228 66.0246C186.138 66.1776 188.298 66.2386 190.328 68.4686C189.688 70.6846 189.288 70.7776 187.538 72.1536C187.198 72.4106 187.098 72.5206 186.618 72.6476C181.028 74.1396 148.678 72.7386 139.898 72.7266C121.167 72.6996 102.019 73.7946 83.3493 72.8436C80.7653 72.7116 79.4203 72.7406 77.2683 71.2676C76.5483 69.0526 76.9443 68.2956 77.4763 66.0736Z" fill="#232422"/>
<path d="M234.608 66.4268C246.068 64.6168 272.838 66.0337 286.088 66.0637C300.038 66.0957 314.738 64.9628 328.558 66.1268C330.978 66.3308 332.418 66.5937 334.018 68.4897C333.418 70.4667 333.088 70.7607 331.548 72.1677C331.468 72.2237 331.408 72.3037 331.318 72.3357C327.998 73.5047 238.678 73.2597 235.748 72.1677C234.438 70.0987 234.668 68.7738 234.608 66.4268Z" fill="#232422"/>
<path d="M126.806 102.062C134.589 102.033 157.219 100.435 163.229 102.93C164.769 103.567 164.779 103.946 165.299 105.398C164.689 106.909 163.959 107.51 162.719 108.477C162.409 108.547 161.859 108.681 161.509 108.728C156.519 109.403 132.169 109.993 128.002 108.52C127.513 108.347 126.634 107.432 126.187 107.077C125.77 104.842 126.113 104.173 126.806 102.062Z" fill="#232422"/>
<path d="M84.0857 102.135C90.6747 102.122 113.17 99.9041 117.605 103.996C118.164 106.058 117.804 106.729 117.245 108.748C108.427 108.854 99.4147 109.516 90.6127 109.067C88.0757 108.937 85.1476 108.866 83.3346 106.883C82.7646 105.034 83.3967 103.874 84.0857 102.135Z" fill="#232422"/>
<path d="M342.379 66.4325C349.879 65.2075 359.109 65.7145 366.729 65.9265C370.149 66.0215 374.149 65.6915 376.629 68.3215C376.159 70.2735 376.059 70.3965 374.509 71.6885L373.709 72.3645C369.479 73.4435 347.419 73.5485 343.679 71.7075C342.299 69.8195 342.499 68.6595 342.379 66.4325Z" fill="#232422"/>
<path d="M199.208 66.4207C205.058 65.0097 215.998 64.8507 221.738 66.5607C223.468 67.0757 223.958 67.3187 224.828 68.8507C223.708 70.8147 223.258 71.1427 221.318 72.3377C215.908 73.6767 204.978 74.2967 200.098 71.4897C198.668 69.3957 199.018 68.8767 199.208 66.4207Z" fill="#232422"/>
<path d="M388.279 66.4278C392.679 65.6238 397.889 65.6018 402.329 66.1378C404.479 66.3978 405.559 66.7778 406.899 68.4848C406.209 70.3698 405.859 70.7328 404.349 72.0678C404.069 72.1998 403.819 72.3718 403.529 72.4648C399.529 73.7438 393.269 73.2068 389.559 71.5758C388.089 69.5478 388.289 68.9808 388.279 66.4278Z" fill="#232422"/>
<path d="M504.709 290.733C511.199 290.406 518.699 292.302 525.139 293.264L569.699 300.122L610.229 306.193C617.639 307.294 625.369 308.039 632.649 309.77C632.789 310.101 633.039 310.636 633.109 311.021C633.799 314.637 606.219 477.943 602.709 494.526C602.449 495.767 601.909 496.705 601.149 497.715C590.469 495.409 579.219 493.915 568.369 492.567C568.669 492.041 568.929 491.505 569.149 490.94C570.799 486.695 572.439 462.012 570.689 458.155C578.459 458.554 588.429 462.741 595.959 461.006L597.269 458.79L596.769 457.259C590.879 453.349 578.099 452.996 571.149 452.103C571.709 451.263 572.199 450.359 572.429 449.368C573.389 445.292 574.559 433.843 572.419 430.186C581.709 430.728 590.819 433.635 600.149 433.691C601.569 432.775 601.619 432.684 602.239 431.114L601.369 429.557C594.619 425.084 581.249 424.858 573.159 423.693C573.619 423.001 574.029 422.387 574.289 421.588C576.259 415.532 575.249 406.463 572.399 400.893C578.919 401.472 600.389 406.534 604.549 405.17C605.989 404.698 606.009 403.999 606.579 402.714L605.699 401.102C599.219 396.682 579.809 395.824 571.329 394.397C571.609 393.666 571.639 393.219 571.549 392.433C571.039 387.942 569.139 381.911 565.449 379.07C558.509 378.193 558.899 388.296 554.449 391.075C554.159 391.252 553.859 391.407 553.569 391.574C543.859 389.941 509.929 382.562 502.609 385.557C501.969 385.819 501.969 386.334 501.719 386.942C504.989 392.881 542.759 395.029 551.399 397.785C551.589 397.845 551.769 397.912 551.959 397.975C552.019 398.153 552.089 398.325 552.119 398.507C552.619 401.246 548.579 417.749 547.209 419.742C536.999 417.839 526.719 416.376 516.489 414.612C511.899 413.821 506.779 412.229 502.149 412.144C499.609 412.097 498.079 413.009 496.269 414.69L496.859 416.026C505.429 421.323 534.919 423.369 546.589 425.63C546.849 426.297 547.049 426.948 547.219 427.648C548.229 431.967 547.579 444.123 545.259 448.037C540.929 446.406 499.489 439.939 495.699 440.508C494.189 441.715 494.149 441.556 493.919 443.456C498.569 450.13 534.329 450.503 544.459 453.954C544.609 454.007 544.759 454.064 544.909 454.119C544.969 454.251 545.009 454.385 545.069 454.516C545.299 455.082 545.559 455.665 545.689 456.267C546.539 460.295 545.149 484.264 543.109 487.741C537.369 485.161 486.619 478.388 476.479 476.855C477.769 474.844 482.649 435.062 483.459 429.77L498.819 332C500.459 321.629 505.349 300.009 504.709 290.733Z" fill="#FEFEF6"/>
<path d="M508.249 355.998C519.239 355.668 547.229 361.421 559.599 363.342C575.169 365.758 591.939 366.981 607.149 370.923C609.339 371.491 610.559 372.002 611.749 373.952C610.749 376.035 610.479 376.081 608.409 377.162C596.749 375.576 509.449 362.574 507.369 360.662C506.799 358.495 507.369 357.998 508.249 355.998Z" fill="#232422"/>
<path d="M511.168 327.491C512.338 327.158 513.548 326.935 514.768 326.938C525.498 326.954 541.288 330.755 552.438 332.5C572.058 335.57 592.328 337.731 611.738 341.811C613.618 342.208 615.108 342.505 616.498 343.938C616.328 346.185 615.898 346.205 614.328 347.714C610.018 348.409 522.448 334.586 512.938 332.344C511.298 330.791 511.478 329.621 511.168 327.491Z" fill="#232422"/>
<path d="M164.089 286.944C165.679 286.691 167.369 286.36 168.959 286.723C170.749 287.132 172.559 288.409 173.419 290.049C174.749 292.598 174.059 295.996 172.899 298.477C170.289 304.063 164.569 309.13 160.989 314.236C155.469 322.121 151.399 332.88 148.189 341.96C145.999 348.175 139.079 364.732 141.849 370.511C143.399 371.597 143.589 371.644 145.489 371.696C149.829 368.691 151.719 357.298 153.349 352.242C158.139 337.43 168.469 313.421 183.059 306.232C185.539 305.009 188.209 304.472 190.849 305.559C192.369 306.185 193.699 307.43 194.299 308.974C194.929 310.585 194.779 312.402 194.209 314.006C191.919 320.396 186.109 327.101 182.519 332.93C180.229 336.639 178.549 340.643 176.929 344.679C171.929 357.17 163.529 390.234 169.219 402.552C169.759 403.703 169.999 403.616 171.179 404.066C172.699 403.348 173.649 402.147 174.519 400.718C181.689 388.865 186.029 376.134 195.079 365.178C198.699 360.793 204.289 356.58 210.049 355.991C211.629 356.516 212.599 356.668 213.359 358.344C216.519 365.366 208.329 379.48 205.989 386.321C198.909 406.949 193.199 428.021 182.039 446.974C175.999 457.223 167.239 465.512 159.819 474.744C150.239 486.682 144.509 500.802 138.749 514.828C132.068 511.549 125.289 508.488 118.412 505.645C102.303 499.553 85.9236 495.15 69.0176 491.882C73.4166 478.788 77.3236 465.146 78.7676 451.37C80.1136 438.53 79.5576 425.489 79.6976 412.593C79.9966 385.237 83.1825 354.929 96.1805 330.405C99.0515 324.987 101.711 319.195 106.1 314.795C108.034 312.857 110.992 311.3 113.739 311.252C114.257 312.246 94.0125 358.101 95.7875 368.848C96.0705 370.561 96.8265 370.769 98.1125 371.679C100.019 371.56 100.801 371.048 101.718 369.313C103.835 365.308 104.227 359.898 105.62 355.515C111.364 337.455 121.375 303.975 137.799 292.782C139.879 291.364 141.649 290.557 144.169 291.028L144.899 292.342C144.989 297.094 132.429 317.813 129.552 324.844C126.578 332.123 115.253 362.356 118.644 368.909C119.176 369.938 119.646 369.824 120.673 370.191C123.326 369.291 124.313 367.158 125.287 364.673C127.835 358.166 128.97 350.759 130.949 344.023C135.629 328.101 143.669 308.451 154.619 295.769C157.409 292.545 160.919 289.792 164.089 286.944Z" fill="#FEFEF6"/>
<path d="M309.358 289.231C339.578 284.154 349.259 364.319 358.319 369.636L359.159 369.403C365.619 361.145 350.789 325.749 346.539 316.605C344.239 311.665 335.999 298.544 336.159 294.234C337.389 292.752 338.019 292.052 340.079 291.792C344.489 291.235 348.619 297.358 350.799 300.532C359.079 312.563 364.889 325.677 369.569 339.475C371.839 346.15 376.369 366.379 380.039 369.808C381.859 370.445 381.779 370.552 383.529 369.778C387.319 362.944 374.559 331.117 371.129 322.931C369.579 319.24 366.899 315.646 366.059 311.792L367.059 311.14C371.279 311.771 373.789 314.361 376.269 317.637C394.949 342.372 400.798 378.308 402.108 408.508C402.708 422.171 402.228 436.076 404.718 449.576C406.228 457.741 417.378 485.831 416.878 489.576C400.858 492.976 385.388 497.209 369.838 502.33C365.678 505.475 352.848 510.524 347.478 512.878C347.748 510.288 345.539 506.492 344.519 504.109C339.819 493.186 333.049 482.385 324.829 473.737C315.179 463.584 305.489 455.989 298.379 443.483C293.919 435.54 290.029 427.326 286.709 418.842C282.769 408.699 270.169 369.106 272.779 359.669C274.149 357.952 274.959 357.137 277.129 356.637C292.969 358.339 303.738 404.35 311.118 409.463L312.319 409.237C319.169 397.427 305.508 348.863 299.838 335.702C296.478 327.893 289.019 319.775 288.059 311.281C287.789 308.911 287.979 307.126 289.429 305.219C291.249 304.412 292.179 304.27 294.169 304.715C300.929 306.225 306.938 312.964 310.738 318.324C318.388 329.126 323.459 339.949 328.019 352.363C330.259 358.468 332.019 364.961 335.189 370.662C336.889 371.61 337.299 371.738 339.249 371.732L340.429 370.31C342.379 359.7 325.789 325.416 319.919 315.441C316.139 309.018 308.989 301.817 307.669 294.437C307.279 292.25 308.148 290.98 309.358 289.231Z" fill="#FEFEF6"/>
<path d="M208.388 398.001C215.478 396.567 224.308 397.462 231.548 397.473C245.035 397.536 258.522 397.495 272.008 397.35C274.928 400.614 279.008 418.224 281.098 423.607C284.238 431.694 287.858 440.158 292.428 447.555C297.138 455.196 308.798 465.535 310.578 473.552C311.018 475.492 310.808 476.714 309.818 478.399C303.278 481.318 287.738 479.708 280.208 479.636L215.318 479.618C204.798 479.656 192.868 481.052 182.568 479.216C178.418 474.924 180.678 468.356 178.718 463.146C178.658 462.987 178.598 462.833 178.528 462.676C179.438 462.065 180.238 461.337 180.988 460.546C189.798 451.284 208.758 409.594 208.388 398.001Z" fill="#FEFEF6"/>
<path d="M171.428 471.477C174.748 473.905 173.708 480.477 176.678 483.914C177.608 484.989 179.188 486.066 180.598 486.225C196.968 488.069 220.278 486.729 237.488 486.755C260.158 486.789 285.788 488.138 308.128 486.496C310.178 486.346 311.518 486.281 313.118 484.892C315.318 482.978 317.348 479.764 317.538 476.822L317.938 477.138C322.878 481.06 328.088 487.861 331.118 493.377C331.878 494.78 332.618 495.753 332.138 497.338L324.458 497.229L154.258 497.287C158.158 489.515 169.408 477.291 171.428 471.477Z" fill="#FEFEF6"/>
<path d="M559.998 399.507C560.578 399.376 561.258 399.18 561.868 399.18C562.608 399.181 563.598 399.322 564.108 399.848C567.968 403.794 568.248 411.382 568.108 416.6C567.608 435.124 565.558 453.905 564.288 472.407L561.788 504.52C561.478 508.628 561.748 512.883 561.198 516.955C560.968 518.684 560.718 519.898 559.418 521.123L556.568 520.955C553.638 520.351 550.668 519.987 547.698 519.58C551.568 512.908 553.128 436.935 554.708 421.632C555.218 416.739 555.938 411.343 557.408 406.669C558.078 404.523 559.298 402.55 559.808 400.363C559.878 400.079 559.928 399.792 559.998 399.507Z" fill="#1C90FE"/>
<path d="M219.039 369.495C227.899 367.756 254.509 369.156 264.699 369.194C268.169 373.113 269.759 384.414 270.569 389.761L270.089 390.29L262.209 390.23L210.309 390.225C210.679 389.912 211.239 389.473 211.569 389.078C214.579 385.498 219.059 374.077 219.039 369.495Z" fill="#FEFEF6"/>
<path d="M547.808 527.042C551.528 526.52 555.388 527.161 559.038 527.891C560.728 531.088 560.058 536.232 559.758 539.751C559.418 543.816 559.328 546.094 556.138 548.799C555.368 550.265 554.908 550.22 553.428 550.85C552.028 550.753 550.828 550.623 549.648 549.788C544.678 546.265 548.868 533.162 547.888 527.486C547.868 527.337 547.838 527.19 547.808 527.042Z" fill="#1C90FE"/>
<path d="M176.199 368.721C177.689 368.43 179.509 367.908 181.029 368.094C182.329 368.254 182.428 368.558 183.118 369.553C182.858 372.53 180.039 375.215 177.939 377.133C177.889 377.384 177.869 377.643 177.789 377.888C177.329 379.356 176.779 380.485 175.389 381.046C174.959 377.27 176.689 373.478 176.319 369.712C176.279 369.381 176.239 369.051 176.199 368.721Z" fill="#FEFEF6"/>
</svg>
