<svg width="500" height="500" viewBox="0 0 500 500" fill="none" xmlns="http://www.w3.org/2000/svg">
<path d="M422.41 179.999C424.68 156.539 430.11 134.329 420.51 111.769C402.89 70.3688 349.74 48.3888 308.44 67.9988C287.32 77.9988 269.26 92.6288 246 97.9988C183.22 112.489 86.3199 35.2888 52.1499 125.169C40.4199 156.009 45.1499 196.649 66.3599 222.429C73.1699 230.699 81.4899 237.899 86.5299 247.359C100.32 273.249 80.7999 301.699 71.9999 325.849C51.0999 382.919 129.9 414.499 172.67 420.319C243.37 429.999 301.69 348.999 372 381.999C421 404.999 464 348.999 455 292.999C449.11 256.339 419.29 221.249 422.08 183.889C422.18 182.599 422.29 181.309 422.41 179.999Z" fill="url(#paint0_linear_1107_604)"/>
<path d="M140.83 183.43H367.5C370.33 183.43 373.044 184.554 375.045 186.555C377.046 188.556 378.17 191.27 378.17 194.1V341.1C378.17 342.632 377.868 344.15 377.282 345.566C376.695 346.981 375.835 348.268 374.752 349.352C373.668 350.435 372.382 351.295 370.966 351.881C369.55 352.468 368.032 352.77 366.5 352.77H141.83C140.297 352.77 138.78 352.468 137.364 351.881C135.948 351.295 134.662 350.435 133.578 349.352C132.494 348.268 131.635 346.981 131.048 345.566C130.462 344.15 130.16 342.632 130.16 341.1V194.1C130.16 191.27 131.284 188.556 133.285 186.555C135.286 184.554 138 183.43 140.83 183.43Z" fill="white" stroke="#2E353A" stroke-linecap="round" stroke-linejoin="round"/>
<path d="M223.79 200.102H209.83V209.272H223.79V200.102Z" fill="#2E353A"/>
<path d="M178.56 256.672H165.6V269.532H178.56V256.672Z" fill="#2E353A"/>
<path d="M235.82 211.469H222.76V224.329H235.82V211.469Z" fill="#2E353A"/>
<path d="M207.62 200.102H193.66V209.272H207.62V200.102Z" fill="#2E353A"/>
<path d="M251.08 211.469H238.02V224.329H251.08V211.469Z" fill="#2E353A"/>
<path d="M239.95 200.102H225.99V209.272H239.95V200.102Z" fill="#2E353A"/>
<path d="M170.73 241.602H146.17V254.462H170.73V241.602Z" fill="#2E353A"/>
<path d="M205.29 211.469H192.23V224.329H205.29V211.469Z" fill="#2E353A"/>
<path d="M163.4 256.672H146.17V269.532H163.4V256.672Z" fill="#2E353A"/>
<path d="M256.12 200.102H242.16V209.272H256.12V200.102Z" fill="#2E353A"/>
<path d="M174.76 211.469H161.7V224.329H174.76V211.469Z" fill="#2E353A"/>
<path d="M175.29 200.102H161.33V209.272H175.29V200.102Z" fill="#2E353A"/>
<path d="M191.46 200.102H177.5V209.272H191.46V200.102Z" fill="#2E353A"/>
<path d="M190.02 211.469H176.96V224.329H190.02V211.469Z" fill="#2E353A"/>
<path d="M220.55 211.469H207.49V224.329H220.55V211.469Z" fill="#2E353A"/>
<path d="M320.79 200.102H306.83V209.272H320.79V200.102Z" fill="#2E353A"/>
<path d="M336.95 200.102H322.99V209.272H336.95V200.102Z" fill="#2E353A"/>
<path d="M327.41 211.469H314.35V224.329H327.41V211.469Z" fill="#2E353A"/>
<path d="M342.68 211.469H329.62V224.329H342.68V211.469Z" fill="#2E353A"/>
<path d="M366.83 256.672H347.6V269.532H366.83V256.672Z" fill="#2E353A"/>
<path d="M353.12 200.102H339.16V209.272H353.12V200.102Z" fill="#2E353A"/>
<path d="M159.5 211.469H146.17V224.329H159.5V211.469Z" fill="#2E353A"/>
<path d="M272.29 200.102H258.33V209.272H272.29V200.102Z" fill="#2E353A"/>
<path d="M288.45 200.102H274.49V209.272H288.45V200.102Z" fill="#2E353A"/>
<path d="M281.62 211.469H268.56V224.329H281.62V211.469Z" fill="#2E353A"/>
<path d="M312.15 211.469H299.09V224.329H312.15V211.469Z" fill="#2E353A"/>
<path d="M266.35 211.469H253.29V224.329H266.35V211.469Z" fill="#2E353A"/>
<path d="M296.88 211.469H283.82V224.329H296.88V211.469Z" fill="#2E353A"/>
<path d="M304.62 200.102H290.66V209.272H304.62V200.102Z" fill="#2E353A"/>
<path d="M284.73 256.672H271.77V269.532H284.73V256.672Z" fill="#2E353A"/>
<path d="M352.73 241.602H339.77V254.462H352.73V241.602Z" fill="#2E353A"/>
<path d="M337.56 241.602H324.6V254.462H337.56V241.602Z" fill="#2E353A"/>
<path d="M345.39 256.672H332.43V269.532H345.39V256.672Z" fill="#2E353A"/>
<path d="M330.23 256.672H317.27V269.532H330.23V256.672Z" fill="#2E353A"/>
<path d="M299.89 256.672H286.93V269.532H299.89V256.672Z" fill="#2E353A"/>
<path d="M315.06 256.672H302.1V269.532H315.06V256.672Z" fill="#2E353A"/>
<path d="M322.39 241.602H309.43V254.462H322.39V241.602Z" fill="#2E353A"/>
<path d="M307.23 241.602H294.27V254.462H307.23V241.602Z" fill="#2E353A"/>
<path d="M366.84 200.102H355.33V209.272H366.84V200.102Z" fill="#2E353A"/>
<path d="M159.13 200.102H146.17V209.272H159.13V200.102Z" fill="#2E353A"/>
<path d="M366.84 271.727H146.17V285.097H366.84V271.727Z" fill="#2E353A"/>
<path d="M366.83 211.469H344.88V224.329H366.83V211.469Z" fill="#2E353A"/>
<path d="M366.83 241.602H354.93V254.462H366.83V241.602Z" fill="#2E353A"/>
<path d="M351.27 239.299H349.06V226.539H336.1V239.299H333.9V226.539H320.94V239.299H318.73V226.539H305.77V239.299H303.56V226.539H290.6V239.299H288.4V226.539H275.44V239.299H273.23V226.539H260.27V239.299H258.06V226.539H245.1V239.299H242.9V226.539H229.94V239.299H227.73V226.539H214.77V239.299H212.56V226.539H199.6V239.299H197.4V226.539H184.44V239.299H182.23V226.539H169.27V239.299H167.06V226.539H146.17V239.399H366.83V226.539H351.27V239.299Z" fill="#2E353A"/>
<path d="M246.56 241.602H233.6V254.462H246.56V241.602Z" fill="#2E353A"/>
<path d="M292.06 241.602H279.1V254.462H292.06V241.602Z" fill="#2E353A"/>
<path d="M216.23 241.602H203.27V254.462H216.23V241.602Z" fill="#2E353A"/>
<path d="M224.06 256.672H211.1V269.532H224.06V256.672Z" fill="#2E353A"/>
<path d="M231.39 241.602H218.43V254.462H231.39V241.602Z" fill="#2E353A"/>
<path d="M201.06 241.602H188.1V254.462H201.06V241.602Z" fill="#2E353A"/>
<path d="M193.73 256.672H180.77V269.532H193.73V256.672Z" fill="#2E353A"/>
<path d="M208.89 256.672H195.93V269.532H208.89V256.672Z" fill="#2E353A"/>
<path d="M261.73 241.602H248.77V254.462H261.73V241.602Z" fill="#2E353A"/>
<path d="M269.56 256.672H256.6V269.532H269.56V256.672Z" fill="#2E353A"/>
<path d="M276.89 241.602H263.93V254.462H276.89V241.602Z" fill="#2E353A"/>
<path d="M239.23 256.672H226.27V269.532H239.23V256.672Z" fill="#2E353A"/>
<path d="M254.39 256.672H241.43V269.532H254.39V256.672Z" fill="#2E353A"/>
<path d="M185.89 241.602H172.93V254.462H185.89V241.602Z" fill="#2E353A"/>
<path d="M392.33 91.4297H114.67C113.308 91.4308 111.965 91.7449 110.744 92.348C109.523 92.951 108.458 93.8267 107.629 94.9073C106.801 95.988 106.232 97.2447 105.967 98.5803C105.702 99.9158 105.747 101.295 106.1 102.61L126.4 178.19C126.906 180.076 128.02 181.744 129.569 182.933C131.118 184.123 133.017 184.768 134.97 184.77H163.31V190H345V184.8H372C373.953 184.798 375.852 184.153 377.401 182.963C378.95 181.774 380.064 180.106 380.57 178.22L400.87 102.64C401.227 101.325 401.278 99.9457 401.017 98.6085C400.756 97.2713 400.19 96.0121 399.365 94.9284C398.539 93.8446 397.475 92.9653 396.255 92.3587C395.035 91.752 393.692 91.4341 392.33 91.4297Z" fill="#2E353A" stroke="#2E353A" stroke-linecap="round" stroke-linejoin="round"/>
<path d="M360.93 178.103H146.07L124.58 100.773H382.41L360.93 178.103Z" fill="white" stroke="#2E353A" stroke-linecap="round" stroke-linejoin="round"/>
<path d="M160.33 144.156V145.156H156.54V144.156H160.33Z" fill="#2E353A"/>
<path d="M165.05 144.156V145.156H161.25V144.156H165.05Z" fill="#2E353A"/>
<path d="M169.77 144.156V145.156H166V144.156H169.77Z" fill="#2E353A"/>
<path d="M174.48 144.156V145.156H170.69V144.156H174.48Z" fill="#2E353A"/>
<path d="M179.2 144.156V145.156H175.4V144.156H179.2Z" fill="#2E353A"/>
<path d="M183.92 144.156V145.156H180.12V144.156H183.92Z" fill="#2E353A"/>
<path d="M188.63 144.156V145.156H184.84V144.156H188.63Z" fill="#2E353A"/>
<path d="M193.3 149.429L189.12 138.289H190.12L194.3 149.429H193.3Z" fill="#2E353A"/>
<path d="M156.51 127.938V128.938H152.72V127.938H156.51Z" fill="#2E353A"/>
<path d="M161.23 127.938V128.938H157.44V127.938H161.23Z" fill="#2E353A"/>
<path d="M166 127.938V128.938H162.2V127.938H166Z" fill="#2E353A"/>
<path d="M170.67 127.938V128.938H166.87V127.938H170.67Z" fill="#2E353A"/>
<path d="M175.38 127.938V128.938H171.59V127.938H175.38Z" fill="#2E353A"/>
<path d="M183.36 127.938V128.938H179.56V127.938H183.36Z" fill="#2E353A"/>
<path d="M188.07 127.938V128.938H184.28V127.938H188.07Z" fill="#2E353A"/>
<path d="M192.79 127.938V128.938H189V127.938H192.79Z" fill="#2E353A"/>
<path d="M197.51 127.938V128.938H193.71V127.938H197.51Z" fill="#2E353A"/>
<path d="M202.22 127.938V128.938H198.43V127.938H202.22Z" fill="#2E353A"/>
<path d="M206.94 127.938V128.938H203.15V127.938H206.94Z" fill="#2E353A"/>
<path d="M211.66 127.938V128.938H207.86V127.938H211.66Z" fill="#2E353A"/>
<path d="M219.63 127.938V128.938H215.84V127.938H219.63Z" fill="#2E353A"/>
<path d="M224.35 127.938V128.938H220.55V127.938H224.35Z" fill="#2E353A"/>
<path d="M229.07 127.938V128.938H225.27V127.938H229.07Z" fill="#2E353A"/>
<path d="M237 127.938V128.938H233.21V127.938H237Z" fill="#2E353A"/>
<path d="M241.76 127.938V128.938H238V127.938H241.76Z" fill="#2E353A"/>
<path d="M246.48 127.938V128.938H242.68V127.938H246.48Z" fill="#2E353A"/>
<path d="M264.22 127.938V128.938H260.43V127.938H264.22Z" fill="#2E353A"/>
<path d="M268.94 127.938V128.938H265.14V127.938H268.94Z" fill="#2E353A"/>
<path d="M273.66 127.938V128.938H269.86V127.938H273.66Z" fill="#2E353A"/>
<path d="M278.37 127.938V128.938H274.58V127.938H278.37Z" fill="#2E353A"/>
<path d="M283.09 127.938V128.938H279.29V127.938H283.09Z" fill="#2E353A"/>
<path d="M291.06 127.938V128.938H287.27V127.938H291.06Z" fill="#2E353A"/>
<path d="M295.78 127.938V128.938H292V127.938H295.78Z" fill="#2E353A"/>
<path d="M300.5 127.938V128.938H296.7V127.938H300.5Z" fill="#2E353A"/>
<path d="M308.47 127.938V128.938H304.68V127.938H308.47Z" fill="#2E353A"/>
<path d="M316.45 127.938V128.938H312.65V127.938H316.45Z" fill="#2E353A"/>
<path d="M379.69 292.297L368.99 333.577L379.11 336.547L379.69 292.297Z" fill="white" stroke="#2E353A" stroke-linecap="round" stroke-linejoin="round"/>
<path d="M384.49 248.664C383.283 246.809 382.842 244.557 383.26 242.384C383.81 238.314 388.72 237.384 388.72 237.384C388.72 237.384 389.79 236.574 393.72 238.064C397.65 239.554 428.04 243.674 447.46 246.304C466.88 248.934 473.17 247.234 472.9 253.904C472.63 260.574 455.59 320.434 455.33 322.314C455.07 324.194 384.49 248.664 384.49 248.664Z" fill="white" stroke="#2E353A" stroke-miterlimit="10"/>
<path d="M466.174 259.738L384.482 248.664L371.281 346.043L452.974 357.118L466.174 259.738Z" fill="white" stroke="#2E353A" stroke-linecap="round" stroke-linejoin="round"/>
<path d="M450.99 279.164L455.74 279.814" stroke="#2E353A" stroke-width="0.5" stroke-linecap="round" stroke-linejoin="round"/>
<path d="M421.24 275.133L447.23 278.663" stroke="#2E353A" stroke-width="0.5" stroke-linecap="round" stroke-linejoin="round"/>
<path d="M389.74 270.867L417.48 274.627" stroke="#2E353A" stroke-width="0.5" stroke-linecap="round" stroke-linejoin="round"/>
<path d="M443.55 286.977L454.57 288.477" stroke="#2E353A" stroke-width="0.5" stroke-linecap="round" stroke-linejoin="round"/>
<path d="M388.57 279.523L432.28 285.443" stroke="#2E353A" stroke-width="0.5" stroke-linecap="round" stroke-linejoin="round"/>
<path d="M410.75 291.344L453.4 297.124" stroke="#2E353A" stroke-width="0.5" stroke-linecap="round" stroke-linejoin="round"/>
<path d="M387.39 288.172L406.36 290.752" stroke="#2E353A" stroke-width="0.5" stroke-linecap="round" stroke-linejoin="round"/>
<path d="M424.92 302.086L452.22 305.786" stroke="#2E353A" stroke-width="0.5" stroke-linecap="round" stroke-linejoin="round"/>
<path d="M401.75 298.938L421.79 301.658" stroke="#2E353A" stroke-width="0.5" stroke-linecap="round" stroke-linejoin="round"/>
<path d="M386.22 296.836L398.3 298.476" stroke="#2E353A" stroke-width="0.5" stroke-linecap="round" stroke-linejoin="round"/>
<path d="M441.28 313.117L451.05 314.437" stroke="#2E353A" stroke-width="0.5" stroke-linecap="round" stroke-linejoin="round"/>
<path d="M385.05 305.492L434.71 312.222" stroke="#2E353A" stroke-width="0.5" stroke-linecap="round" stroke-linejoin="round"/>
<path d="M422.26 319.344L449.88 323.094" stroke="#2E353A" stroke-width="0.5" stroke-linecap="round" stroke-linejoin="round"/>
<path d="M383.87 314.141L417.56 318.711" stroke="#2E353A" stroke-width="0.5" stroke-linecap="round" stroke-linejoin="round"/>
<path d="M430.79 329.32L448.7 331.74" stroke="#2E353A" stroke-width="0.5" stroke-linecap="round" stroke-linejoin="round"/>
<path d="M394.47 324.391L426.41 328.721" stroke="#2E353A" stroke-width="0.5" stroke-linecap="round" stroke-linejoin="round"/>
<path d="M382.7 322.805L390.71 323.885" stroke="#2E353A" stroke-width="0.5" stroke-linecap="round" stroke-linejoin="round"/>
<path d="M466.18 259.742C466.18 259.742 467.58 246.162 472.58 251.622" stroke="#2E353A" stroke-linecap="round" stroke-linejoin="round"/>
<path d="M438.48 364.355L438.39 372.985L433.36 365.885L413.17 297.975L418.29 296.445L438.48 364.355Z" fill="white" stroke="#2E353A" stroke-linecap="round" stroke-linejoin="round"/>
<path d="M416.286 299.349L413.492 300.164L433.33 368.18L436.124 367.365L416.286 299.349Z" fill="#0077FF" stroke="#2E353A" stroke-width="0.5" stroke-linecap="round" stroke-linejoin="round"/>
<path d="M438.48 364.375L433.37 365.895L438.39 372.985L438.48 364.375Z" stroke="#2E353A" stroke-linecap="round" stroke-linejoin="round"/>
<path d="M435.88 369.432L438.39 372.982L438.44 368.672L435.88 369.432Z" fill="#2E353A" stroke="#2E353A" stroke-linecap="round" stroke-linejoin="round"/>
<path d="M413.47 289.6C412.793 289.804 412.223 290.267 411.886 290.889C411.549 291.511 411.471 292.241 411.67 292.92L413.17 297.97L418.29 296.45L416.79 291.4C416.586 290.723 416.123 290.153 415.501 289.816C414.879 289.479 414.149 289.401 413.47 289.6Z" fill="white" stroke="#2E353A" stroke-linecap="round" stroke-linejoin="round"/>
<path d="M413.47 289.6C412.793 289.804 412.223 290.267 411.886 290.889C411.549 291.511 411.471 292.241 411.67 292.92L412.39 295.33L417.5 293.81L416.79 291.4C416.586 290.723 416.123 290.153 415.501 289.816C414.879 289.479 414.149 289.401 413.47 289.6Z" fill="#2E353A" stroke="#2E353A" stroke-linecap="round" stroke-linejoin="round"/>
<path d="M161.65 249.492C161.01 250.392 160.38 251.332 159.75 252.322" stroke="white" stroke-linecap="round" stroke-linejoin="round"/>
<path d="M172.11 237.453C169.324 240.036 166.746 242.835 164.4 245.823" stroke="white" stroke-linecap="round" stroke-linejoin="round"/>
<path d="M160.76 242.766C158.028 246.598 155.553 250.606 153.35 254.766" stroke="white" stroke-linecap="round" stroke-linejoin="round"/>
<path d="M231.29 264.75C230.66 265.65 230.02 266.59 229.39 267.57" stroke="white" stroke-linecap="round" stroke-linejoin="round"/>
<path d="M241.75 252.711C238.969 255.296 236.394 258.094 234.05 261.081" stroke="white" stroke-linecap="round" stroke-linejoin="round"/>
<path d="M230.41 258C227.679 261.854 225.204 265.883 223 270.06" stroke="white" stroke-linecap="round" stroke-linejoin="round"/>
<path d="M331.11 240.001C330.2 239.381 329.24 238.761 328.25 238.141" stroke="white" stroke-linecap="round" stroke-linejoin="round"/>
<path d="M343.31 250.281C340.68 247.542 337.842 245.011 334.82 242.711" stroke="white" stroke-linecap="round" stroke-linejoin="round"/>
<path d="M337.83 239.003C333.938 236.331 329.876 233.916 325.67 231.773" stroke="white" stroke-linecap="round" stroke-linejoin="round"/>
<path d="M228.25 302C227.73 305.76 226.95 311 226.17 314.11" stroke="#2E353A" stroke-linecap="round" stroke-linejoin="round"/>
<path d="M228.83 297.43C228.83 297.43 228.75 298.14 228.6 299.29" stroke="#2E353A" stroke-linecap="round" stroke-linejoin="round"/>
<path d="M231.5 308.102C230.408 311.744 229.072 315.309 227.5 318.772" stroke="#2E353A" stroke-linecap="round" stroke-linejoin="round"/>
<path d="M281.5 313.43C281.5 313.43 282.17 322.1 286.83 326.77" stroke="#2E353A" stroke-linecap="round" stroke-linejoin="round"/>
<path d="M280.83 322.102C280.83 322.102 282.83 328.102 286.83 330.772" stroke="#2E353A" stroke-linecap="round" stroke-linejoin="round"/>
<g style="mix-blend-mode:multiply">
<path d="M145 368.441C145 368.441 149.44 364.871 149.44 334.181C149.44 303.491 154.55 281.071 160.85 271.241C167.15 261.411 173.04 257.471 175.8 257.471C178.56 257.471 176.58 261.011 172.65 266.121C168.72 271.231 165.18 273.991 163.6 280.291C162.02 286.591 162.03 294.451 164 293.661C165.97 292.871 169.11 277.141 171.86 271.241C174.61 265.341 181.31 257.861 185.24 254.321C189.17 250.781 197.83 240.161 201.76 242.911C205.69 245.661 203.34 249.601 200.98 251.171C198.62 252.741 189.17 262.171 184.85 268.091C180.53 274.011 177.77 288.941 180.13 289.331C182.49 289.721 189.57 267.701 193.5 262.981C197.43 258.261 213.17 245.271 216.71 244.881C220.25 244.491 220.65 249.991 217.5 252.751C214.35 255.511 203.73 267.301 200.19 274.381C196.65 281.461 195.07 294.451 198.19 291.301C201.31 288.151 206.45 275.171 210.78 270.841C215.11 266.511 228.09 252.751 231.24 254.321C234.39 255.891 233.6 259.831 230.85 262.581C228.1 265.331 217.47 280.291 214.72 288.151C211.97 296.011 208.81 318.051 210.39 314.911C211.97 311.771 217.08 295.631 219.83 288.911C222.58 282.191 228.09 279.081 228.88 282.221C229.67 285.361 228.09 286.941 226.12 294.031C224.15 301.121 224.12 320.031 218.26 330.611C212.4 341.191 188.88 363.831 185.74 371.691C183.465 377.104 180.75 382.322 177.62 387.291" fill="#9C95FF"/>
</g>
<g style="mix-blend-mode:multiply">
<path d="M363.55 371.101C363.55 371.101 359 364.871 359 334.181C359 303.491 353.88 281.071 347.59 271.241C341.3 261.411 335.39 257.471 332.64 257.471C329.89 257.471 331.85 261.011 335.79 266.121C339.73 271.231 343.26 273.991 344.79 280.291C346.32 286.591 346.37 294.451 344.4 293.661C342.43 292.871 339.29 277.141 336.53 271.241C333.77 265.341 327.09 257.861 323.16 254.321C319.23 250.781 310.57 240.161 306.63 242.911C302.69 245.661 305.06 249.601 307.42 251.171C309.78 252.741 319.22 262.171 323.55 268.091C327.88 274.011 330.63 288.941 328.27 289.331C325.91 289.721 318.86 267.701 314.93 263.001C311 258.301 295.25 245.291 291.71 244.901C288.17 244.511 287.78 250.011 290.93 252.771C294.08 255.531 304.7 267.321 308.24 274.401C311.78 281.481 313.35 294.471 310.24 291.321C307.13 288.171 301.98 275.191 297.66 270.861C293.34 266.531 280.35 252.771 277.2 254.341C274.05 255.911 274.84 259.851 277.59 262.601C280.34 265.351 290.97 280.311 293.72 288.171C296.47 296.031 299.62 318.071 298.05 314.931C296.48 311.791 291.36 295.651 288.61 288.931C285.86 282.211 280.35 279.101 279.56 282.241C278.77 285.381 280.35 286.961 282.31 294.051C284.27 301.141 284.31 320.051 290.18 330.631C296.05 341.211 318.9 361.861 322.05 369.731C325.2 377.601 330.9 390.001 330.9 390.001" fill="#9C95FF"/>
</g>
<path d="M143.5 376.001C143.5 376.001 149.4 356.731 149.4 326.001C149.4 295.271 154.51 272.891 160.81 263.061C167.11 253.231 173 249.291 175.76 249.291C178.52 249.291 176.54 252.831 172.61 257.941C168.68 263.051 165.14 265.811 163.56 272.101C161.98 278.391 161.99 286.271 163.96 285.481C165.93 284.691 169.07 268.961 171.82 263.061C174.57 257.161 181.27 249.681 185.2 246.141C189.13 242.601 197.79 231.981 201.72 234.731C205.65 237.481 203.3 241.421 200.94 242.991C198.58 244.561 189.13 253.991 184.81 259.911C180.49 265.831 177.73 280.761 180.09 281.151C182.45 281.541 189.53 259.521 193.46 254.791C197.39 250.061 213.13 237.091 216.67 236.701C220.21 236.311 220.61 241.811 217.46 244.571C214.31 247.331 203.69 259.121 200.15 266.201C196.61 273.281 195.03 286.271 198.15 283.121C201.27 279.971 206.41 266.991 210.74 262.661C215.07 258.331 228.05 244.571 231.2 246.141C234.35 247.711 233.56 251.651 230.81 254.401C228.06 257.151 217.43 272.101 214.68 279.971C211.93 287.841 208.77 309.871 210.35 306.721C211.93 303.571 217.04 287.451 219.79 280.721C222.54 273.991 228.05 270.881 228.84 274.031C229.63 277.181 228.05 278.751 226.08 285.831C224.11 292.911 224.08 311.831 218.22 322.421C212.36 333.011 189.5 361.761 186.35 369.631C183.2 377.501 176.12 394.811 176.12 394.811" fill="white"/>
<path d="M143.5 376.001C143.5 376.001 149.4 356.731 149.4 326.001C149.4 295.271 154.51 272.891 160.81 263.061C167.11 253.231 173 249.291 175.76 249.291C178.52 249.291 176.54 252.831 172.61 257.941C168.68 263.051 165.14 265.811 163.56 272.101C161.98 278.391 161.99 286.271 163.96 285.481C165.93 284.691 169.07 268.961 171.82 263.061C174.57 257.161 181.27 249.681 185.2 246.141C189.13 242.601 197.79 231.981 201.72 234.731C205.65 237.481 203.3 241.421 200.94 242.991C198.58 244.561 189.13 253.991 184.81 259.911C180.49 265.831 177.73 280.761 180.09 281.151C182.45 281.541 189.53 259.521 193.46 254.791C197.39 250.061 213.13 237.091 216.67 236.701C220.21 236.311 220.61 241.811 217.46 244.571C214.31 247.331 203.69 259.121 200.15 266.201C196.61 273.281 195.03 286.271 198.15 283.121C201.27 279.971 206.41 266.991 210.74 262.661C215.07 258.331 228.05 244.571 231.2 246.141C234.35 247.711 233.56 251.651 230.81 254.401C228.06 257.151 217.43 272.101 214.68 279.971C211.93 287.841 208.77 309.871 210.35 306.721C211.93 303.571 217.04 287.451 219.79 280.721C222.54 273.991 228.05 270.881 228.84 274.031C229.63 277.181 228.05 278.751 226.08 285.831C224.11 292.911 224.08 311.831 218.22 322.421C212.36 333.011 189.5 361.761 186.35 369.631C183.2 377.501 176.12 394.811 176.12 394.811" stroke="#2E353A" stroke-linecap="round" stroke-linejoin="round"/>
<path d="M364.89 376.001C364.89 376.001 358.99 356.731 358.99 326.001C358.99 295.271 353.87 272.891 347.58 263.061C341.29 253.231 335.38 249.291 332.63 249.291C329.88 249.291 331.84 252.831 335.78 257.941C339.72 263.051 343.25 265.811 344.78 272.101C346.31 278.391 346.36 286.271 344.39 285.481C342.42 284.691 339.28 268.961 336.52 263.061C333.76 257.161 327.08 249.681 323.15 246.141C319.22 242.601 310.56 231.981 306.62 234.731C302.68 237.481 305.05 241.421 307.41 242.991C309.77 244.561 319.21 253.991 323.54 259.911C327.87 265.831 330.62 280.761 328.26 281.151C325.9 281.541 318.82 259.521 314.89 254.791C310.96 250.061 295.21 237.091 291.67 236.701C288.13 236.311 287.74 241.811 290.89 244.571C294.04 247.331 304.66 259.121 308.2 266.201C311.74 273.281 313.31 286.271 310.2 283.121C307.09 279.971 301.94 266.991 297.62 262.661C293.3 258.331 280.31 244.571 277.16 246.141C274.01 247.711 274.8 251.651 277.55 254.401C280.3 257.151 290.93 272.101 293.68 279.971C296.43 287.841 299.58 309.871 298.01 306.721C296.44 303.571 291.32 287.451 288.57 280.721C285.82 273.991 280.31 270.881 279.52 274.031C278.73 277.181 280.31 278.751 282.27 285.831C284.23 292.911 284.27 311.831 290.14 322.421C296.01 333.011 318.86 361.761 322.01 369.631C325.16 377.501 332.24 394.811 332.24 394.811" fill="white"/>
<path d="M364.89 376.001C364.89 376.001 358.99 356.731 358.99 326.001C358.99 295.271 353.87 272.891 347.58 263.061C341.29 253.231 335.38 249.291 332.63 249.291C329.88 249.291 331.84 252.831 335.78 257.941C339.72 263.051 343.25 265.811 344.78 272.101C346.31 278.391 346.36 286.271 344.39 285.481C342.42 284.691 339.28 268.961 336.52 263.061C333.76 257.161 327.08 249.681 323.15 246.141C319.22 242.601 310.56 231.981 306.62 234.731C302.68 237.481 305.05 241.421 307.41 242.991C309.77 244.561 319.21 253.991 323.54 259.911C327.87 265.831 330.62 280.761 328.26 281.151C325.9 281.541 318.82 259.521 314.89 254.791C310.96 250.061 295.21 237.091 291.67 236.701C288.13 236.311 287.74 241.811 290.89 244.571C294.04 247.331 304.66 259.121 308.2 266.201C311.74 273.281 313.31 286.271 310.2 283.121C307.09 279.971 301.94 266.991 297.62 262.661C293.3 258.331 280.31 244.571 277.16 246.141C274.01 247.711 274.8 251.651 277.55 254.401C280.3 257.151 290.93 272.101 293.68 279.971C296.43 287.841 299.58 309.871 298.01 306.721C296.44 303.571 291.32 287.451 288.57 280.721C285.82 273.991 280.31 270.881 279.52 274.031C278.73 277.181 280.31 278.751 282.27 285.831C284.23 292.911 284.27 311.831 290.14 322.421C296.01 333.011 318.86 361.761 322.01 369.631C325.16 377.501 332.24 394.811 332.24 394.811" stroke="#2E353A" stroke-linecap="round" stroke-linejoin="round"/>
<path d="M119 441.285H179C179.78 438.285 180.76 434.925 182 431.285C186.72 417.145 202 399.465 202 399.465C191.049 389.82 178.18 382.602 164.24 378.285C141.24 371.205 124.4 373.285 124.4 373.285C127.5 386.066 127.841 399.361 125.4 412.285C122.4 426.845 120.4 436.055 119 441.285Z" fill="#2E353A" stroke="#2E353A" stroke-linecap="round" stroke-linejoin="round"/>
<path d="M329.4 436.006H391.74C389.74 430.826 385.42 419.576 381.1 408.326C375.2 393.006 377.56 372.386 375.2 372.386C372.84 372.386 346.33 370.616 333.37 374.736C320.41 378.856 305.67 390.646 305.67 390.646C312.342 398.399 318.079 406.911 322.76 416.006C325.769 422.381 327.998 429.097 329.4 436.006Z" fill="#2E353A" stroke="#2E353A" stroke-linecap="round" stroke-linejoin="round"/>
<defs>
<linearGradient id="paint0_linear_1107_604" x1="251.041" y1="60.7422" x2="251.041" y2="421.128" gradientUnits="userSpaceOnUse">
<stop stop-color="white"/>
<stop offset="0.769231" stop-color="#FFE27F"/>
<stop offset="1" stop-color="#FDF0CD"/>
</linearGradient>
</defs>
</svg>
