<svg viewBox="134 134 184 71" xmlns="http://www.w3.org/2000/svg" style="max-height: 500px" width="184" height="71">
<g stroke-width="0.3" stroke-opacity="1.00" stroke="#FEFEFE" fill-opacity="0.0" fill="None"><path d="M 0.00 500.00 &#xA;L 500.00 500.00&#xA;L 500.00 0.00&#xA;L 0.00 0.00&#xA;L 0.00 500.00&#xA;M 198.00 141.00 &#xA;C 200.91 142.07 201.88 143.88 204.00 146.00&#xA;C 213.71 155.71 208.56 167.71 210.00 181.00 C 211.44 194.29 204.73 204.73 193.00 193.00&#xA;C 183.18 183.18 185.48 167.57 186.00 154.00&#xA;C 183.22 163.03 171.82 162.40 164.00 162.00&#xA;C 165.64 164.59 170.43 161.34 172.00 164.00&#xA;C 176.57 165.06 175.27 165.10 178.00 168.00&#xA;C 187.08 177.63 176.50 187.16 164.00 184.00&#xA;C 165.10 191.13 164.78 198.83 157.00 198.00 C 149.22 197.17 148.56 195.48 144.00 190.00&#xA;C 138.57 181.49 141.84 171.07 141.00 161.00 C 140.16 150.93 140.76 138.40 153.00 141.00 C 165.24 143.60 174.45 136.98 182.00 145.00&#xA;C 182.82 145.87 185.68 146.18 186.00 148.00&#xA;C 186.28 146.72 185.24 144.50 187.00 144.00&#xA;C 188.46 142.07 188.30 141.94 191.00 141.00&#xA;C 193.74 140.05 195.29 140.00 198.00 141.00&#xA;M 256.00 146.00 &#xA;C 263.24 154.82 257.28 159.44 253.23 168.23 C 249.18 177.02 262.46 180.10 262.31 189.69 C 262.15 199.29 251.06 201.06 244.00 194.00&#xA;C 241.07 191.07 239.86 189.49 238.00 186.00&#xA;C 234.92 189.56 234.43 199.76 227.00 198.00 C 219.57 196.24 216.12 195.90 213.00 189.00&#xA;C 211.30 185.25 212.00 180.18 212.00 176.00&#xA;C 211.20 167.78 208.76 153.95 212.00 146.00&#xA;C 215.87 136.48 226.70 141.39 231.00 147.00&#xA;C 232.47 148.92 235.15 152.93 237.00 152.00&#xA;C 243.34 143.13 246.88 134.89 256.00 146.00&#xA;M 309.00 152.00 &#xA;C 315.76 160.65 315.98 171.02 306.00 178.00&#xA;C 306.23 178.16 306.00 179.00 306.00 179.00&#xA;C 310.62 182.23 319.11 192.82 311.75 197.75 C 304.39 202.69 295.09 195.34 291.00 189.00&#xA;C 290.17 187.72 289.78 186.28 289.00 185.00&#xA;C 288.88 183.73 286.29 189.31 287.00 193.00 C 287.71 196.69 282.29 198.09 279.00 198.00 C 275.71 197.91 273.29 195.29 271.00 193.00&#xA;C 261.05 183.05 264.51 175.88 263.00 162.00 C 261.49 148.12 266.46 139.46 281.00 140.00 C 295.54 140.54 300.42 141.02 309.00 152.00 Z"/>
</g>
<g stroke-width="0.3" stroke-opacity="1.00" stroke="#A0DDFB" fill-opacity="0.0" fill="None"><path d="M 191.00 141.00 &#xA;C 192.83 140.65 196.18 140.62 198.00 141.00&#xA;C 195.29 140.00 193.74 140.05 191.00 141.00 Z"/>
</g>
<g stroke-width="0.3" stroke-opacity="1.00" stroke="#22B1F6" fill-opacity="0.0" fill="None"><path d="M 237.00 152.00 &#xA;C 235.60 153.96 233.18 155.53 233.00 158.00&#xA;C 230.47 155.24 233.47 150.10 231.00 147.00&#xA;C 226.70 141.39 215.87 136.48 212.00 146.00&#xA;C 209.80 154.74 212.00 166.95 212.00 176.00&#xA;C 212.00 180.18 211.30 185.25 213.00 189.00&#xA;C 215.91 194.40 222.14 194.58 228.00 194.00 C 233.86 193.42 230.71 183.51 234.00 180.00&#xA;C 235.61 181.61 236.48 184.14 238.00 186.00&#xA;C 239.86 189.49 241.07 191.07 244.00 194.00&#xA;C 250.28 196.91 255.73 193.58 260.00 189.00&#xA;C 258.48 181.39 251.99 175.58 249.70 168.31 C 247.40 161.03 260.76 153.99 256.00 146.00&#xA;C 246.88 134.89 243.34 143.13 237.00 152.00 Z"/>
</g>
<g stroke-width="0.3" stroke-opacity="1.00" stroke="#23B1F6" fill-opacity="0.0" fill="None"><path d="M 271.00 193.00 &#xA;C 282.69 198.41 283.61 186.73 285.00 179.00&#xA;C 285.68 181.42 287.81 182.92 289.00 185.00&#xA;C 289.78 186.28 290.17 187.72 291.00 189.00&#xA;C 294.76 193.91 300.44 197.37 307.07 194.07 C 313.71 190.77 309.40 183.47 306.00 179.00&#xA;C 306.00 179.00 306.23 178.16 306.00 178.00&#xA;C 304.47 176.96 303.63 175.77 303.00 174.00&#xA;C 310.44 169.31 312.95 159.62 309.00 152.00&#xA;C 300.42 141.02 295.54 140.54 281.00 140.00 C 266.46 139.46 261.49 148.12 263.00 162.00 C 264.51 175.88 261.05 183.05 271.00 193.00&#xA;M 284.00 158.00 &#xA;C 298.91 155.80 283.15 172.02 284.00 158.00 Z"/>
</g>
<g stroke-width="0.3" stroke-opacity="1.00" stroke="#26B1F6" fill-opacity="0.0" fill="None"><path d="M 144.00 190.00 &#xA;C 151.84 199.64 166.63 192.69 161.00 180.00&#xA;C 169.41 181.71 180.80 178.95 178.00 168.00&#xA;C 175.27 165.10 176.57 165.06 172.00 164.00&#xA;C 168.38 163.60 164.63 164.30 161.00 164.00&#xA;C 158.55 155.11 169.14 158.88 174.22 157.22 C 179.30 155.57 183.33 150.94 182.00 145.00&#xA;C 174.45 136.98 165.24 143.60 153.00 141.00 C 140.76 138.40 140.16 150.93 141.00 161.00 C 141.84 171.07 138.57 181.49 144.00 190.00 Z"/>
</g>
<g stroke-width="0.3" stroke-opacity="1.00" stroke="#21B0F6" fill-opacity="0.0" fill="None"><path d="M 187.00 144.00 &#xA;C 185.82 146.60 186.11 151.06 186.00 154.00&#xA;C 185.48 167.57 183.18 183.18 193.00 193.00&#xA;C 204.94 199.94 207.97 186.71 206.00 177.00 C 204.03 167.29 209.33 154.70 204.00 146.00&#xA;C 201.88 143.88 200.91 142.07 198.00 141.00&#xA;C 196.18 140.62 192.83 140.65 191.00 141.00&#xA;C 188.30 141.94 188.46 142.07 187.00 144.00 Z"/>
</g>
<g stroke-width="0.3" stroke-opacity="1.00" stroke="#AAD9F1" fill-opacity="0.0" fill="None"><path d="M 182.00 145.00 &#xA;C 183.33 150.94 179.30 155.57 174.22 157.22 C 169.14 158.88 158.55 155.11 161.00 164.00&#xA;C 164.63 164.30 168.38 163.60 172.00 164.00&#xA;C 170.43 161.34 165.64 164.59 164.00 162.00&#xA;C 171.82 162.40 183.22 163.03 186.00 154.00&#xA;C 186.11 151.06 185.82 146.60 187.00 144.00&#xA;C 185.24 144.50 186.28 146.72 186.00 148.00&#xA;C 185.68 146.18 182.82 145.87 182.00 145.00 Z"/>
</g>
<g stroke-width="0.3" stroke-opacity="1.00" stroke="#A4D7F0" fill-opacity="0.0" fill="None"><path d="M 193.00 193.00 &#xA;C 204.73 204.73 211.44 194.29 210.00 181.00 C 208.56 167.71 213.71 155.71 204.00 146.00&#xA;C 209.33 154.70 204.03 167.29 206.00 177.00 C 207.97 186.71 204.94 199.94 193.00 193.00 Z"/>
</g>
<g stroke-width="0.3" stroke-opacity="1.00" stroke="#A9E1FB" fill-opacity="0.0" fill="None"><path d="M 212.00 176.00 &#xA;C 212.00 166.95 209.80 154.74 212.00 146.00&#xA;C 208.76 153.95 211.20 167.78 212.00 176.00 Z"/>
</g>
<g stroke-width="0.3" stroke-opacity="1.00" stroke="#A3D6EF" fill-opacity="0.0" fill="None"><path d="M 244.00 194.00 &#xA;C 251.06 201.06 262.15 199.29 262.31 189.69 C 262.46 180.10 249.18 177.02 253.23 168.23 C 257.28 159.44 263.24 154.82 256.00 146.00&#xA;C 260.76 153.99 247.40 161.03 249.70 168.31 C 251.99 175.58 258.48 181.39 260.00 189.00&#xA;C 255.73 193.58 250.28 196.91 244.00 194.00 Z"/>
</g>
<g stroke-width="0.3" stroke-opacity="1.00" stroke="#A5D7F0" fill-opacity="0.0" fill="None"><path d="M 237.00 152.00 &#xA;C 235.15 152.93 232.47 148.92 231.00 147.00&#xA;C 233.47 150.10 230.47 155.24 233.00 158.00&#xA;C 233.18 155.53 235.60 153.96 237.00 152.00 Z"/>
</g>
<g stroke-width="0.3" stroke-opacity="1.00" stroke="#A3D6EF" fill-opacity="0.0" fill="None"><path d="M 306.00 178.00 &#xA;C 315.98 171.02 315.76 160.65 309.00 152.00&#xA;C 312.95 159.62 310.44 169.31 303.00 174.00&#xA;C 303.63 175.77 304.47 176.96 306.00 178.00 Z"/>
</g>
<g stroke-width="0.3" stroke-opacity="1.00" stroke="#9ED6F1" fill-opacity="0.0" fill="None"><path d="M 284.00 158.00 &#xA;C 283.15 172.02 298.91 155.80 284.00 158.00 Z"/>
</g>
<g stroke-width="0.3" stroke-opacity="1.00" stroke="#A4D7F0" fill-opacity="0.0" fill="None"><path d="M 144.00 190.00 &#xA;C 148.56 195.48 149.22 197.17 157.00 198.00 C 164.78 198.83 165.10 191.13 164.00 184.00&#xA;C 176.50 187.16 187.08 177.63 178.00 168.00&#xA;C 180.80 178.95 169.41 181.71 161.00 180.00&#xA;C 166.63 192.69 151.84 199.64 144.00 190.00 Z"/>
</g>
<g stroke-width="0.3" stroke-opacity="1.00" stroke="#A5D7F0" fill-opacity="0.0" fill="None"><path d="M 271.00 193.00 &#xA;C 273.29 195.29 275.71 197.91 279.00 198.00 C 282.29 198.09 287.71 196.69 287.00 193.00 C 286.29 189.31 288.88 183.73 289.00 185.00&#xA;C 287.81 182.92 285.68 181.42 285.00 179.00&#xA;C 283.61 186.73 282.69 198.41 271.00 193.00 Z"/>
</g>
<g stroke-width="0.3" stroke-opacity="1.00" stroke="#A1D6F0" fill-opacity="0.0" fill="None"><path d="M 291.00 189.00 &#xA;C 295.09 195.34 304.39 202.69 311.75 197.75 C 319.11 192.82 310.62 182.23 306.00 179.00&#xA;C 309.40 183.47 313.71 190.77 307.07 194.07 C 300.44 197.37 294.76 193.91 291.00 189.00 Z"/>
</g>
<g stroke-width="0.3" stroke-opacity="1.00" stroke="#A3D6F0" fill-opacity="0.0" fill="None"><path d="M 213.00 189.00 &#xA;C 216.12 195.90 219.57 196.24 227.00 198.00 C 234.43 199.76 234.92 189.56 238.00 186.00&#xA;C 236.48 184.14 235.61 181.61 234.00 180.00&#xA;C 230.71 183.51 233.86 193.42 228.00 194.00 C 222.14 194.58 215.91 194.40 213.00 189.00 Z"/>
</g>
<g stroke="None" fill-opacity="1.00" fill="#FEFEFE00">
<path d="M 0.00 500.00 &#xA;L 500.00 500.00&#xA;L 500.00 0.00&#xA;L 0.00 0.00&#xA;L 0.00 500.00&#xA;M 198.00 141.00 &#xA;C 200.91 142.07 201.88 143.88 204.00 146.00&#xA;C 213.71 155.71 208.56 167.71 210.00 181.00 C 211.44 194.29 204.73 204.73 193.00 193.00&#xA;C 183.18 183.18 185.48 167.57 186.00 154.00&#xA;C 183.22 163.03 171.82 162.40 164.00 162.00&#xA;C 165.64 164.59 170.43 161.34 172.00 164.00&#xA;C 176.57 165.06 175.27 165.10 178.00 168.00&#xA;C 187.08 177.63 176.50 187.16 164.00 184.00&#xA;C 165.10 191.13 164.78 198.83 157.00 198.00 C 149.22 197.17 148.56 195.48 144.00 190.00&#xA;C 138.57 181.49 141.84 171.07 141.00 161.00 C 140.16 150.93 140.76 138.40 153.00 141.00 C 165.24 143.60 174.45 136.98 182.00 145.00&#xA;C 182.82 145.87 185.68 146.18 186.00 148.00&#xA;C 186.28 146.72 185.24 144.50 187.00 144.00&#xA;C 188.46 142.07 188.30 141.94 191.00 141.00&#xA;C 193.74 140.05 195.29 140.00 198.00 141.00&#xA;M 256.00 146.00 &#xA;C 263.24 154.82 257.28 159.44 253.23 168.23 C 249.18 177.02 262.46 180.10 262.31 189.69 C 262.15 199.29 251.06 201.06 244.00 194.00&#xA;C 241.07 191.07 239.86 189.49 238.00 186.00&#xA;C 234.92 189.56 234.43 199.76 227.00 198.00 C 219.57 196.24 216.12 195.90 213.00 189.00&#xA;C 211.30 185.25 212.00 180.18 212.00 176.00&#xA;C 211.20 167.78 208.76 153.95 212.00 146.00&#xA;C 215.87 136.48 226.70 141.39 231.00 147.00&#xA;C 232.47 148.92 235.15 152.93 237.00 152.00&#xA;C 243.34 143.13 246.88 134.89 256.00 146.00&#xA;M 309.00 152.00 &#xA;C 315.76 160.65 315.98 171.02 306.00 178.00&#xA;C 306.23 178.16 306.00 179.00 306.00 179.00&#xA;C 310.62 182.23 319.11 192.82 311.75 197.75 C 304.39 202.69 295.09 195.34 291.00 189.00&#xA;C 290.17 187.72 289.78 186.28 289.00 185.00&#xA;C 288.88 183.73 286.29 189.31 287.00 193.00 C 287.71 196.69 282.29 198.09 279.00 198.00 C 275.71 197.91 273.29 195.29 271.00 193.00&#xA;C 261.05 183.05 264.51 175.88 263.00 162.00 C 261.49 148.12 266.46 139.46 281.00 140.00 C 295.54 140.54 300.42 141.02 309.00 152.00 Z"/>
</g>
<g stroke="None" fill-opacity="1.00" fill="#A0DDFB">
<path d="M 191.00 141.00 &#xA;C 192.83 140.65 196.18 140.62 198.00 141.00&#xA;C 195.29 140.00 193.74 140.05 191.00 141.00 Z"/>
</g>
<g stroke="None" fill-opacity="1.00" fill="#22B1F6">
<path d="M 237.00 152.00 &#xA;C 235.60 153.96 233.18 155.53 233.00 158.00&#xA;C 230.47 155.24 233.47 150.10 231.00 147.00&#xA;C 226.70 141.39 215.87 136.48 212.00 146.00&#xA;C 209.80 154.74 212.00 166.95 212.00 176.00&#xA;C 212.00 180.18 211.30 185.25 213.00 189.00&#xA;C 215.91 194.40 222.14 194.58 228.00 194.00 C 233.86 193.42 230.71 183.51 234.00 180.00&#xA;C 235.61 181.61 236.48 184.14 238.00 186.00&#xA;C 239.86 189.49 241.07 191.07 244.00 194.00&#xA;C 250.28 196.91 255.73 193.58 260.00 189.00&#xA;C 258.48 181.39 251.99 175.58 249.70 168.31 C 247.40 161.03 260.76 153.99 256.00 146.00&#xA;C 246.88 134.89 243.34 143.13 237.00 152.00 Z"/>
</g>
<g stroke="None" fill-opacity="1.00" fill="#23B1F6">
<path d="M 271.00 193.00 &#xA;C 282.69 198.41 283.61 186.73 285.00 179.00&#xA;C 285.68 181.42 287.81 182.92 289.00 185.00&#xA;C 289.78 186.28 290.17 187.72 291.00 189.00&#xA;C 294.76 193.91 300.44 197.37 307.07 194.07 C 313.71 190.77 309.40 183.47 306.00 179.00&#xA;C 306.00 179.00 306.23 178.16 306.00 178.00&#xA;C 304.47 176.96 303.63 175.77 303.00 174.00&#xA;C 310.44 169.31 312.95 159.62 309.00 152.00&#xA;C 300.42 141.02 295.54 140.54 281.00 140.00 C 266.46 139.46 261.49 148.12 263.00 162.00 C 264.51 175.88 261.05 183.05 271.00 193.00&#xA;M 284.00 158.00 &#xA;C 298.91 155.80 283.15 172.02 284.00 158.00 Z"/>
</g>
<g stroke="None" fill-opacity="1.00" fill="#26B1F6">
<path d="M 144.00 190.00 &#xA;C 151.84 199.64 166.63 192.69 161.00 180.00&#xA;C 169.41 181.71 180.80 178.95 178.00 168.00&#xA;C 175.27 165.10 176.57 165.06 172.00 164.00&#xA;C 168.38 163.60 164.63 164.30 161.00 164.00&#xA;C 158.55 155.11 169.14 158.88 174.22 157.22 C 179.30 155.57 183.33 150.94 182.00 145.00&#xA;C 174.45 136.98 165.24 143.60 153.00 141.00 C 140.76 138.40 140.16 150.93 141.00 161.00 C 141.84 171.07 138.57 181.49 144.00 190.00 Z"/>
</g>
<g stroke="None" fill-opacity="1.00" fill="#21B0F6">
<path d="M 187.00 144.00 &#xA;C 185.82 146.60 186.11 151.06 186.00 154.00&#xA;C 185.48 167.57 183.18 183.18 193.00 193.00&#xA;C 204.94 199.94 207.97 186.71 206.00 177.00 C 204.03 167.29 209.33 154.70 204.00 146.00&#xA;C 201.88 143.88 200.91 142.07 198.00 141.00&#xA;C 196.18 140.62 192.83 140.65 191.00 141.00&#xA;C 188.30 141.94 188.46 142.07 187.00 144.00 Z"/>
</g>
<g stroke="None" fill-opacity="1.00" fill="#AAD9F1">
<path d="M 182.00 145.00 &#xA;C 183.33 150.94 179.30 155.57 174.22 157.22 C 169.14 158.88 158.55 155.11 161.00 164.00&#xA;C 164.63 164.30 168.38 163.60 172.00 164.00&#xA;C 170.43 161.34 165.64 164.59 164.00 162.00&#xA;C 171.82 162.40 183.22 163.03 186.00 154.00&#xA;C 186.11 151.06 185.82 146.60 187.00 144.00&#xA;C 185.24 144.50 186.28 146.72 186.00 148.00&#xA;C 185.68 146.18 182.82 145.87 182.00 145.00 Z"/>
</g>
<g stroke="None" fill-opacity="1.00" fill="#A4D7F0">
<path d="M 193.00 193.00 &#xA;C 204.73 204.73 211.44 194.29 210.00 181.00 C 208.56 167.71 213.71 155.71 204.00 146.00&#xA;C 209.33 154.70 204.03 167.29 206.00 177.00 C 207.97 186.71 204.94 199.94 193.00 193.00 Z"/>
</g>
<g stroke="None" fill-opacity="1.00" fill="#A9E1FB">
<path d="M 212.00 176.00 &#xA;C 212.00 166.95 209.80 154.74 212.00 146.00&#xA;C 208.76 153.95 211.20 167.78 212.00 176.00 Z"/>
</g>
<g stroke="None" fill-opacity="1.00" fill="#A3D6EF">
<path d="M 244.00 194.00 &#xA;C 251.06 201.06 262.15 199.29 262.31 189.69 C 262.46 180.10 249.18 177.02 253.23 168.23 C 257.28 159.44 263.24 154.82 256.00 146.00&#xA;C 260.76 153.99 247.40 161.03 249.70 168.31 C 251.99 175.58 258.48 181.39 260.00 189.00&#xA;C 255.73 193.58 250.28 196.91 244.00 194.00 Z"/>
</g>
<g stroke="None" fill-opacity="1.00" fill="#A5D7F0">
<path d="M 237.00 152.00 &#xA;C 235.15 152.93 232.47 148.92 231.00 147.00&#xA;C 233.47 150.10 230.47 155.24 233.00 158.00&#xA;C 233.18 155.53 235.60 153.96 237.00 152.00 Z"/>
</g>
<g stroke="None" fill-opacity="1.00" fill="#A3D6EF">
<path d="M 306.00 178.00 &#xA;C 315.98 171.02 315.76 160.65 309.00 152.00&#xA;C 312.95 159.62 310.44 169.31 303.00 174.00&#xA;C 303.63 175.77 304.47 176.96 306.00 178.00 Z"/>
</g>
<g stroke="None" fill-opacity="1.00" fill="#9ED6F1">
<path d="M 284.00 158.00 &#xA;C 283.15 172.02 298.91 155.80 284.00 158.00 Z"/>
</g>
<g stroke="None" fill-opacity="1.00" fill="#A4D7F0">
<path d="M 144.00 190.00 &#xA;C 148.56 195.48 149.22 197.17 157.00 198.00 C 164.78 198.83 165.10 191.13 164.00 184.00&#xA;C 176.50 187.16 187.08 177.63 178.00 168.00&#xA;C 180.80 178.95 169.41 181.71 161.00 180.00&#xA;C 166.63 192.69 151.84 199.64 144.00 190.00 Z"/>
</g>
<g stroke="None" fill-opacity="1.00" fill="#A5D7F0">
<path d="M 271.00 193.00 &#xA;C 273.29 195.29 275.71 197.91 279.00 198.00 C 282.29 198.09 287.71 196.69 287.00 193.00 C 286.29 189.31 288.88 183.73 289.00 185.00&#xA;C 287.81 182.92 285.68 181.42 285.00 179.00&#xA;C 283.61 186.73 282.69 198.41 271.00 193.00 Z"/>
</g>
<g stroke="None" fill-opacity="1.00" fill="#A1D6F0">
<path d="M 291.00 189.00 &#xA;C 295.09 195.34 304.39 202.69 311.75 197.75 C 319.11 192.82 310.62 182.23 306.00 179.00&#xA;C 309.40 183.47 313.71 190.77 307.07 194.07 C 300.44 197.37 294.76 193.91 291.00 189.00 Z"/>
</g>
<g stroke="None" fill-opacity="1.00" fill="#A3D6F0">
<path d="M 213.00 189.00 &#xA;C 216.12 195.90 219.57 196.24 227.00 198.00 C 234.43 199.76 234.92 189.56 238.00 186.00&#xA;C 236.48 184.14 235.61 181.61 234.00 180.00&#xA;C 230.71 183.51 233.86 193.42 228.00 194.00 C 222.14 194.58 215.91 194.40 213.00 189.00 Z"/>
</g>
</svg>